<svg width="19" height="19" viewBox="0 0 19 19" fill="none" xmlns="http://www.w3.org/2000/svg">
<path fill-rule="evenodd" clip-rule="evenodd" d="M16.9857 4.28714C17.061 4.40131 17.0945 4.53793 17.0806 4.67394C17.0668 4.80995 17.0064 4.93702 16.9097 5.03369L9.63194 12.3107C9.55749 12.3851 9.4646 12.4384 9.36278 12.4651L6.33148 13.2567C6.23128 13.2829 6.12599 13.2823 6.02605 13.2552C5.92612 13.2281 5.83502 13.1753 5.7618 13.102C5.68857 13.0288 5.63577 12.9377 5.60864 12.8378C5.5815 12.7378 5.58098 12.6326 5.60711 12.5324L6.39878 9.50185C6.42245 9.4111 6.46598 9.32673 6.52623 9.25485L13.8309 1.95489C13.9423 1.8437 14.0932 1.78125 14.2505 1.78125C14.4079 1.78125 14.5588 1.8437 14.6701 1.95489L16.9097 4.19373C16.9374 4.22289 16.9628 4.25412 16.9857 4.28714ZM15.6502 4.61331L14.2505 3.21444L7.50711 9.95785L7.01232 11.8523L8.90678 11.3575L15.6502 4.61331Z" fill="black"/>
<path d="M15.549 13.5836C15.7654 11.7342 15.8344 9.87058 15.7556 8.01026C15.7537 7.96642 15.761 7.92267 15.777 7.88178C15.7929 7.8409 15.8172 7.80377 15.8482 7.77276L16.6272 6.99376C16.6485 6.97236 16.6755 6.95755 16.705 6.95113C16.7345 6.9447 16.7652 6.94694 16.7935 6.95755C16.8218 6.96817 16.8464 6.98673 16.8643 7.01099C16.8823 7.03524 16.8929 7.06418 16.8948 7.0943C17.041 9.30404 16.9854 11.5225 16.7286 13.7221C16.5417 15.3229 15.2561 16.5777 13.6624 16.7558C10.8958 17.062 8.10387 17.062 5.33726 16.7558C3.74443 16.5777 2.45797 15.3229 2.27114 13.7221C1.94347 10.916 1.94347 8.08122 2.27114 5.27505C2.45797 3.6743 3.74364 2.41951 5.33726 2.24139C7.43712 2.00947 9.55266 1.95306 11.6619 2.07276C11.6921 2.07493 11.721 2.0857 11.7453 2.10381C11.7695 2.12191 11.7881 2.14658 11.7987 2.1749C11.8094 2.20323 11.8117 2.23401 11.8054 2.26361C11.7991 2.29322 11.7845 2.32039 11.7632 2.34193L10.9771 3.12726C10.9464 3.15802 10.9096 3.18211 10.8692 3.19805C10.8287 3.21398 10.7854 3.22142 10.742 3.21989C8.9819 3.1596 7.21978 3.22707 5.46947 3.42176C4.95801 3.47837 4.48056 3.70575 4.11426 4.06717C3.74796 4.42859 3.51419 4.90294 3.45072 5.4136C3.13315 8.12767 3.13315 10.8695 3.45072 13.5836C3.51419 14.0943 3.74796 14.5686 4.11426 14.93C4.48056 15.2914 4.95801 15.5188 5.46947 15.5754C8.12551 15.8723 10.8742 15.8723 13.531 15.5754C14.0425 15.5188 14.5199 15.2914 14.8862 14.93C15.2525 14.5686 15.4855 14.0943 15.549 13.5836Z" fill="black"/>
</svg>
