<svg width="19" height="19" viewBox="0 0 19 19" fill="none" xmlns="http://www.w3.org/2000/svg">
<path d="M5.54102 16.625C5.1056 16.625 4.73299 16.4701 4.42318 16.1603C4.11338 15.8505 3.95821 15.4776 3.95769 15.0417V4.75C3.73338 4.75 3.54549 4.674 3.39402 4.522C3.24255 4.37 3.16655 4.18211 3.16602 3.95833C3.16549 3.73456 3.24149 3.54667 3.39402 3.39467C3.54655 3.24267 3.73444 3.16667 3.95769 3.16667H7.12435C7.12435 2.94236 7.20035 2.75447 7.35235 2.603C7.50435 2.45153 7.69224 2.37553 7.91602 2.375H11.0827C11.307 2.375 11.4951 2.451 11.6471 2.603C11.7991 2.755 11.8749 2.94289 11.8744 3.16667H15.041C15.2653 3.16667 15.4535 3.24267 15.6055 3.39467C15.7575 3.54667 15.8332 3.73456 15.8327 3.95833C15.8322 4.18211 15.7562 4.37026 15.6047 4.52279C15.4532 4.67532 15.2653 4.75106 15.041 4.75V15.0417C15.041 15.4771 14.8861 15.85 14.5763 16.1603C14.2665 16.4706 13.8936 16.6255 13.4577 16.625H5.54102ZM13.4577 4.75H5.54102V15.0417H13.4577V4.75ZM7.91602 13.4583C8.14032 13.4583 8.32848 13.3823 8.48048 13.2303C8.63248 13.0783 8.70821 12.8904 8.70768 12.6667V7.125C8.70768 6.90069 8.63168 6.71281 8.47968 6.56133C8.32768 6.40986 8.1398 6.33386 7.91602 6.33333C7.69224 6.33281 7.50435 6.40881 7.35235 6.56133C7.20035 6.71386 7.12435 6.90175 7.12435 7.125V12.6667C7.12435 12.891 7.20035 13.0791 7.35235 13.2311C7.50435 13.3831 7.69224 13.4589 7.91602 13.4583ZM11.0827 13.4583C11.307 13.4583 11.4951 13.3823 11.6471 13.2303C11.7991 13.0783 11.8749 12.8904 11.8744 12.6667V7.125C11.8744 6.90069 11.7984 6.71281 11.6464 6.56133C11.4944 6.40986 11.3065 6.33386 11.0827 6.33333C10.8589 6.33281 10.671 6.40881 10.519 6.56133C10.367 6.71386 10.291 6.90175 10.291 7.125V12.6667C10.291 12.891 10.367 13.0791 10.519 13.2311C10.671 13.3831 10.8589 13.4589 11.0827 13.4583Z" fill="#777777"/>
</svg>
