<svg width="19" height="19" viewBox="0 0 19 19" fill="none" xmlns="http://www.w3.org/2000/svg">
<g opacity="0.5">
<path d="M5.54232 7.91536C5.38574 7.91536 5.23268 7.96179 5.10249 8.04878C4.9723 8.13577 4.87083 8.25941 4.81091 8.40407C4.75099 8.54873 4.73532 8.70791 4.76586 8.86148C4.79641 9.01505 4.87181 9.15611 4.98252 9.26682C5.09324 9.37754 5.2343 9.45294 5.38787 9.48349C5.54144 9.51403 5.70062 9.49835 5.84527 9.43844C5.98993 9.37852 6.11357 9.27705 6.20056 9.14686C6.28755 9.01667 6.33398 8.86361 6.33398 8.70703C6.33398 8.49707 6.25058 8.2957 6.10211 8.14724C5.95364 7.99877 5.75228 7.91536 5.54232 7.91536ZM15.0423 4.7487H14.2507V2.3737C14.2507 2.16373 14.1672 1.96237 14.0188 1.81391C13.8703 1.66544 13.6689 1.58203 13.459 1.58203H5.54232C5.33235 1.58203 5.13099 1.66544 4.98252 1.81391C4.83406 1.96237 4.75065 2.16373 4.75065 2.3737V4.7487H3.95898C3.3291 4.7487 2.725 4.99892 2.27961 5.44432C1.83421 5.88972 1.58398 6.49381 1.58398 7.1237V11.8737C1.58398 12.5036 1.83421 13.1077 2.27961 13.5531C2.725 13.9985 3.3291 14.2487 3.95898 14.2487H4.75065V16.6237C4.75065 16.8337 4.83406 17.035 4.98252 17.1835C5.13099 17.332 5.33235 17.4154 5.54232 17.4154H13.459C13.6689 17.4154 13.8703 17.332 14.0188 17.1835C14.1672 17.035 14.2507 16.8337 14.2507 16.6237V14.2487H15.0423C15.6722 14.2487 16.2763 13.9985 16.7217 13.5531C17.1671 13.1077 17.4173 12.5036 17.4173 11.8737V7.1237C17.4173 6.49381 17.1671 5.88972 16.7217 5.44432C16.2763 4.99892 15.6722 4.7487 15.0423 4.7487ZM6.33398 3.16536H12.6673V4.7487H6.33398V3.16536ZM12.6673 15.832H6.33398V12.6654H12.6673V15.832ZM15.834 11.8737C15.834 12.0837 15.7506 12.285 15.6021 12.4335C15.4536 12.582 15.2523 12.6654 15.0423 12.6654H14.2507V11.8737C14.2507 11.6637 14.1672 11.4624 14.0188 11.3139C13.8703 11.1654 13.6689 11.082 13.459 11.082H5.54232C5.33235 11.082 5.13099 11.1654 4.98252 11.3139C4.83406 11.4624 4.75065 11.6637 4.75065 11.8737V12.6654H3.95898C3.74902 12.6654 3.54766 12.582 3.39919 12.4335C3.25073 12.285 3.16732 12.0837 3.16732 11.8737V7.1237C3.16732 6.91373 3.25073 6.71237 3.39919 6.5639C3.54766 6.41544 3.74902 6.33203 3.95898 6.33203H15.0423C15.2523 6.33203 15.4536 6.41544 15.6021 6.5639C15.7506 6.71237 15.834 6.91373 15.834 7.1237V11.8737Z" fill="black"/>
</g>
</svg>
