<svg width="16" height="16" viewBox="0 0 40 40" fill="none" xmlns="http://www.w3.org/2000/svg">
<path d="M16.646 19.5884L18.4289 17.8056V28.2284C18.4289 29.0513 18.9774 29.5999 19.8003 29.5999C20.6231 29.5999 21.1717 29.0513 21.1717 28.2284V17.8056L22.9546 19.5884C23.2289 19.8627 23.6403 19.9999 23.9146 19.9999C24.1889 19.9999 24.6003 19.8627 24.8746 19.5884C25.4231 19.0399 25.4231 18.217 24.8746 17.6684L20.7603 13.5541C20.6231 13.417 20.486 13.2799 20.3489 13.2799C20.0746 13.1427 19.6631 13.1427 19.2517 13.2799C19.1146 13.417 18.9774 13.417 18.8403 13.5541L14.726 17.6684C14.1774 18.217 14.1774 19.0399 14.726 19.5884C15.2746 20.137 16.0974 20.137 16.646 19.5884Z" fill="#4D4D4F" stroke="#4D4D4F" stroke-width="0.72"/>
<path d="M1.97134 21.3714C1.97134 31.2457 9.92563 39.2 19.7999 39.2C29.6742 39.2 37.6285 31.2457 37.6285 21.3714C37.6285 11.4971 29.6742 3.54285 19.7999 3.54285C9.92563 3.54285 1.97134 11.4971 1.97134 21.3714ZM18.4285 6.42284V7.65713C18.4285 8.47999 18.9771 9.02856 19.7999 9.02856C20.6228 9.02856 21.1713 8.47999 21.1713 7.65713V6.42284C28.4399 7.10856 34.1999 12.8686 34.7485 20H33.5142C32.6913 20 32.1428 20.5486 32.1428 21.3714C32.1428 22.1943 32.6913 22.7428 33.5142 22.7428H34.7485C34.0628 30.0114 28.3028 35.7714 21.1713 36.32V35.0857C21.1713 34.2628 20.6228 33.7143 19.7999 33.7143C18.9771 33.7143 18.4285 34.2628 18.4285 35.0857V36.32C11.1599 35.6343 5.39991 29.8743 4.85134 22.7428H6.08563C6.90849 22.7428 7.45706 22.1943 7.45706 21.3714C7.45706 20.5486 6.90849 20 6.08563 20H4.85134C5.39991 12.7314 11.1599 6.97142 18.4285 6.42284ZM1.97134 9.02856C2.38277 9.02856 2.65706 8.89142 2.93134 8.61713L8.41706 3.13142C8.96563 2.58285 8.96563 1.75999 8.41706 1.21142C7.86849 0.662845 7.04563 0.662845 6.49706 1.21142L1.01134 6.69713C0.462772 7.2457 0.462772 8.06856 1.01134 8.61713C1.28563 8.89142 1.55991 9.02856 1.97134 9.02856ZM36.6685 8.61713C36.9428 8.89142 37.2171 9.02856 37.6285 9.02856C38.0399 9.02856 38.3142 8.89142 38.5885 8.61713C39.1371 8.06856 39.1371 7.2457 38.5885 6.69713L33.1028 1.21142C32.5542 0.662845 31.7313 0.662845 31.1828 1.21142C30.6342 1.75999 30.6342 2.58285 31.1828 3.13142L36.6685 8.61713Z" fill="#4D4D4F" stroke="#4D4D4F" stroke-width="0.72"/>
</svg>
