<svg width="20" height="20" viewBox="0 0 20 20" fill="none" xmlns="http://www.w3.org/2000/svg">
<path d="M3.30746 7.94254L9.55746 14.1925C9.61551 14.2506 9.68444 14.2967 9.76031 14.3282C9.83619 14.3597 9.91752 14.3758 9.99965 14.3758C10.0818 14.3758 10.1631 14.3597 10.239 14.3282C10.3149 14.2967 10.3838 14.2506 10.4418 14.1925L16.6918 7.94254C16.8091 7.82526 16.875 7.6662 16.875 7.50035C16.875 7.3345 16.8091 7.17544 16.6918 7.05816C16.5746 6.94088 16.4155 6.875 16.2497 6.875C16.0838 6.875 15.9247 6.94088 15.8075 7.05816L9.99965 12.8668L4.19184 7.05816C4.13377 7.00009 4.06483 6.95403 3.98896 6.9226C3.91309 6.89117 3.83177 6.875 3.74965 6.875C3.66753 6.875 3.58621 6.89117 3.51034 6.9226C3.43447 6.95403 3.36553 7.00009 3.30746 7.05816C3.2494 7.11623 3.20333 7.18517 3.17191 7.26104C3.14048 7.33691 3.1243 7.41823 3.1243 7.50035C3.1243 7.58247 3.14048 7.66379 3.17191 7.73966C3.20333 7.81553 3.2494 7.88447 3.30746 7.94254Z" fill="#4D4D4F"/>
</svg>
