<svg width="19" height="18" viewBox="0 0 19 18" fill="none" xmlns="http://www.w3.org/2000/svg">
<g clip-path="url(#clip0_10_14655)">
<path d="M17.0584 11.073L15.3782 9.3928V7.16704C15.3763 5.62889 14.8041 4.14609 13.7723 3.00536C12.7404 1.86464 11.3223 1.14702 9.79206 0.991267V-0.281128H8.5507V0.991267C7.02046 1.14702 5.60232 1.86464 4.57051 3.00536C3.5387 4.14609 2.9665 5.62889 2.96458 7.16704V9.3928L1.2844 11.073C1.16799 11.1894 1.10257 11.3472 1.10254 11.5118V13.3738C1.10254 13.5385 1.16793 13.6963 1.28433 13.8127C1.40073 13.9291 1.5586 13.9945 1.72322 13.9945H6.06798V14.4768C6.05421 15.2643 6.33165 16.0291 6.8471 16.6246C7.36255 17.2202 8.07972 17.6044 8.86104 17.7037C9.29253 17.7465 9.72819 17.6985 10.14 17.5628C10.5518 17.4271 10.9307 17.2067 11.2522 16.9158C11.5738 16.6249 11.8309 16.2699 12.007 15.8737C12.1831 15.4775 12.2743 15.0488 12.2748 14.6152V13.9945H16.6195C16.7842 13.9945 16.942 13.9291 17.0584 13.8127C17.1748 13.6963 17.2402 13.5385 17.2402 13.3738V11.5118C17.2402 11.3472 17.1748 11.1894 17.0584 11.073ZM11.0334 14.6152C11.0334 15.109 10.8372 15.5827 10.488 15.9319C10.1388 16.2811 9.66523 16.4772 9.17138 16.4772C8.67754 16.4772 8.20392 16.2811 7.85472 15.9319C7.50552 15.5827 7.30934 15.109 7.30934 14.6152V13.9945H11.0334V14.6152ZM15.9989 12.7532H2.3439V11.7688L4.02408 10.0886C4.14049 9.97221 4.20591 9.81436 4.20594 9.64976V7.16704C4.20594 5.85012 4.72908 4.58714 5.66029 3.65594C6.59149 2.72474 7.85447 2.20159 9.17138 2.20159C10.4883 2.20159 11.7513 2.72474 12.6825 3.65594C13.6137 4.58714 14.1368 5.85012 14.1368 7.16704V9.64976C14.1369 9.81436 14.2023 9.97221 14.3187 10.0886L15.9989 11.7688V12.7532Z" fill="#4D4D4F"/>
</g>
<defs>
<clipPath id="clip0_10_14655">
<rect width="18" height="18" fill="white" transform="translate(0.171875)"/>
</clipPath>
</defs>
</svg>
