<svg width="20" height="18" viewBox="0 0 20 18" fill="none" xmlns="http://www.w3.org/2000/svg">
<path d="M8.72303 11.9828V11.9828C8.72303 13.536 9.98213 14.7951 11.5353 14.7951H13.7309L16.5925 17.1387V14.7951V14.7951C17.6461 14.7951 18.5002 13.941 18.5002 12.8874V8.98556C18.5002 7.40513 17.2191 6.12394 15.6386 6.12394V6.12394M4.66864 11.9816V11.9816C2.8248 11.9816 1.33008 10.4869 1.33008 8.64307V7.06015C1.33008 6.47642 1.33008 6.18455 1.35843 5.9391C1.5872 3.95831 3.14972 2.39579 5.1305 2.16702C5.37596 2.13867 5.66782 2.13867 6.25156 2.13867H10.7167C11.3004 2.13867 11.5923 2.13867 11.8378 2.16702C13.8186 2.39579 15.3811 3.95831 15.6098 5.9391C15.6382 6.18455 15.6382 6.47642 15.6382 7.06015V7.06015C15.6382 7.64388 15.6382 7.93575 15.6098 8.1812C15.3811 10.162 13.8186 11.7245 11.8378 11.9533C11.5923 11.9816 11.3004 11.9816 10.7167 11.9816H8.48414L3.71476 14.3252L4.66864 11.9816Z" stroke="#4D4D4F" stroke-width="1.2499" stroke-linecap="round" stroke-linejoin="round"/>
</svg>
