<svg width="32" height="32" viewBox="0 0 32 32" fill="none" xmlns="http://www.w3.org/2000/svg">
<path d="M11.8443 0.761902H3.53265C2.79785 0.761902 2.09315 1.0538 1.57356 1.57338C1.05398 2.09296 0.762085 2.79767 0.762085 3.53246V11.8442C0.762085 12.579 1.05398 13.2837 1.57356 13.8032C2.09315 14.3228 2.79785 14.6147 3.53265 14.6147H11.8443C12.5791 14.6147 13.2838 14.3228 13.8034 13.8032C14.323 13.2837 14.6149 12.579 14.6149 11.8442V3.53246C14.6149 2.79767 14.323 2.09296 13.8034 1.57338C13.2838 1.0538 12.5791 0.761902 11.8443 0.761902ZM11.8443 11.8442H3.53265V3.53246H11.8443V11.8442ZM28.4677 0.761902H20.156C19.4212 0.761902 18.7165 1.0538 18.1969 1.57338C17.6774 2.09296 17.3855 2.79767 17.3855 3.53246V11.8442C17.3855 12.579 17.6774 13.2837 18.1969 13.8032C18.7165 14.3228 19.4212 14.6147 20.156 14.6147H28.4677C29.2025 14.6147 29.9072 14.3228 30.4268 13.8032C30.9464 13.2837 31.2383 12.579 31.2383 11.8442V3.53246C31.2383 2.79767 30.9464 2.09296 30.4268 1.57338C29.9072 1.0538 29.2025 0.761902 28.4677 0.761902ZM28.4677 11.8442H20.156V3.53246H28.4677V11.8442ZM11.8443 17.3853H3.53265C2.79785 17.3853 2.09315 17.6772 1.57356 18.1968C1.05398 18.7163 0.762085 19.421 0.762085 20.1558V28.4675C0.762085 29.2023 1.05398 29.907 1.57356 30.4266C2.09315 30.9462 2.79785 31.2381 3.53265 31.2381H11.8443C12.5791 31.2381 13.2838 30.9462 13.8034 30.4266C14.323 29.907 14.6149 29.2023 14.6149 28.4675V20.1558C14.6149 19.421 14.323 18.7163 13.8034 18.1968C13.2838 17.6772 12.5791 17.3853 11.8443 17.3853ZM11.8443 28.4675H3.53265V20.1558H11.8443V28.4675ZM28.4677 17.3853H20.156C19.4212 17.3853 18.7165 17.6772 18.1969 18.1968C17.6774 18.7163 17.3855 19.421 17.3855 20.1558V28.4675C17.3855 29.2023 17.6774 29.907 18.1969 30.4266C18.7165 30.9462 19.4212 31.2381 20.156 31.2381H28.4677C29.2025 31.2381 29.9072 30.9462 30.4268 30.4266C30.9464 29.907 31.2383 29.2023 31.2383 28.4675V20.1558C31.2383 19.421 30.9464 18.7163 30.4268 18.1968C29.9072 17.6772 29.2025 17.3853 28.4677 17.3853ZM28.4677 28.4675H20.156V20.1558H28.4677V28.4675Z" fill="#884EA7"/>
</svg>
