<svg width="18" height="16.5" viewBox="0 0 36 33" fill="none" xmlns="http://www.w3.org/2000/svg">
<path d="M34.4999 0H1.49988C1.10205 0 0.720523 0.158036 0.439218 0.43934C0.157913 0.720645 -0.00012207 1.10218 -0.00012207 1.5V30C-0.00012207 30.7956 0.315948 31.5587 0.878557 32.1213C1.44117 32.6839 2.20423 33 2.99988 33H10.4999C11.2955 33 12.0586 32.6839 12.6212 32.1213C13.1838 31.5587 13.4999 30.7956 13.4999 30V21H22.4999V24C22.4999 24.7956 22.8159 25.5587 23.3786 26.1213C23.9412 26.6839 24.7042 27 25.4999 27H32.9999C33.7955 27 34.5586 26.6839 35.1212 26.1213C35.6838 25.5587 35.9999 24.7956 35.9999 24V1.5C35.9999 1.10218 35.8418 0.720645 35.5605 0.43934C35.2792 0.158036 34.8977 0 34.4999 0ZM10.4999 30H2.99988V15H10.4999V30ZM10.4999 12H2.99988V3H10.4999V12ZM22.4999 18H13.4999V3H22.4999V18ZM32.9999 24H25.4999V15H32.9999V24ZM32.9999 12H25.4999V3H32.9999V12Z" fill="#884EA7"/>
</svg>
