<svg width="17" height="17" viewBox="0 0 17 17" fill="none" xmlns="http://www.w3.org/2000/svg">
<path d="M14.7719 9.17936C14.7394 9.14683 14.6987 9.12374 14.6541 9.1126C14.6095 9.10145 14.5627 9.10265 14.5188 9.11608C13.5096 9.42109 12.4366 9.4466 11.4141 9.1899C10.3916 8.93321 9.45793 8.40392 8.7125 7.65843C7.96708 6.91294 7.43787 5.97919 7.18126 4.95666C6.92466 3.93414 6.95026 2.86115 7.25536 1.85203C7.2689 1.80805 7.2702 1.76121 7.25911 1.71655C7.24802 1.67189 7.22497 1.63109 7.19243 1.59855C7.15989 1.56601 7.11909 1.54296 7.07443 1.53187C7.02977 1.52078 6.98293 1.52208 6.93895 1.53562C5.65571 1.92935 4.52942 2.71794 3.72047 3.78907C2.8065 5.00769 2.36278 6.51509 2.47076 8.03454C2.57875 9.55398 3.23119 10.9835 4.30831 12.0606C5.38543 13.1377 6.81493 13.7902 8.33437 13.8981C9.85382 14.0061 11.3612 13.5624 12.5798 12.6484C13.6506 11.8391 14.4387 10.7126 14.832 9.42932C14.8452 9.38609 14.8466 9.3401 14.8361 9.29614C14.8255 9.25219 14.8033 9.21186 14.7719 9.17936ZM12.2774 12.2466C11.1563 13.0903 9.76826 13.5007 8.36865 13.4024C6.96905 13.3041 5.65202 12.7036 4.65991 11.7115C3.6678 10.7194 3.06735 9.40239 2.96904 8.00279C2.87072 6.60318 3.28116 5.21515 4.12483 4.09408C4.77446 3.23502 5.64738 2.57071 6.64849 2.1735C6.41934 3.21238 6.45555 4.29224 6.75379 5.31343C7.05203 6.33462 7.60268 7.26424 8.35494 8.0165C9.1072 8.76876 10.0368 9.31941 11.058 9.61765C12.0792 9.91589 13.1591 9.9521 14.1979 9.72295C13.8007 10.7241 13.1364 11.597 12.2774 12.2466Z" stroke="#4D4D4F" stroke-width="0.75"/>
</svg>
