<svg width="36" height="30" viewBox="0 0 36 30" fill="none" xmlns="http://www.w3.org/2000/svg">
<path d="M32.2855 16.4285H3.71408C2.95631 16.4285 2.22959 16.7295 1.69377 17.2654C1.15795 17.8012 0.856934 18.5279 0.856934 19.2857V26.4285C0.856934 27.1863 1.15795 27.913 1.69377 28.4488C2.22959 28.9846 2.95631 29.2857 3.71408 29.2857H32.2855C33.0433 29.2857 33.77 28.9846 34.3058 28.4488C34.8416 27.913 35.1426 27.1863 35.1426 26.4285V19.2857C35.1426 18.5279 34.8416 17.8012 34.3058 17.2654C33.77 16.7295 33.0433 16.4285 32.2855 16.4285ZM32.2855 26.4285H3.71408V19.2857H32.2855V26.4285ZM32.2855 0.714233H3.71408C2.95631 0.714233 2.22959 1.01525 1.69377 1.55107C1.15795 2.08689 0.856934 2.81361 0.856934 3.57138V10.7142C0.856934 11.472 1.15795 12.1987 1.69377 12.7345C2.22959 13.2704 2.95631 13.5714 3.71408 13.5714H32.2855C33.0433 13.5714 33.77 13.2704 34.3058 12.7345C34.8416 12.1987 35.1426 11.472 35.1426 10.7142V3.57138C35.1426 2.81361 34.8416 2.08689 34.3058 1.55107C33.77 1.01525 33.0433 0.714233 32.2855 0.714233ZM32.2855 10.7142H3.71408V3.57138H32.2855V10.7142Z" fill="#884EA7"/>
</svg>
