<svg width="13.4375" height="15.9375" viewBox="0 0 34 40" fill="none" xmlns="http://www.w3.org/2000/svg">
<path d="M32.7949 11.705L22.2949 1.205C22.0841 0.993961 21.7981 0.875263 21.4999 0.875H3.49988C2.80368 0.875 2.13601 1.15156 1.64372 1.64384C1.15144 2.13613 0.874878 2.80381 0.874878 3.5V36.5C0.874878 37.1962 1.15144 37.8639 1.64372 38.3562C2.13601 38.8484 2.80368 39.125 3.49988 39.125H30.4999C31.1961 39.125 31.8637 38.8484 32.356 38.3562C32.8483 37.8639 33.1249 37.1962 33.1249 36.5V12.5C33.1246 12.2017 33.0059 11.9158 32.7949 11.705ZM22.6249 4.715L29.2849 11.375H22.6249V4.715ZM30.4999 36.875H3.49988C3.40042 36.875 3.30504 36.8355 3.23471 36.7652C3.16439 36.6948 3.12488 36.5995 3.12488 36.5V3.5C3.12488 3.40054 3.16439 3.30516 3.23471 3.23483C3.30504 3.16451 3.40042 3.125 3.49988 3.125H20.3749V12.5C20.3749 12.7984 20.4934 13.0845 20.7044 13.2955C20.9154 13.5065 21.2015 13.625 21.4999 13.625H30.8749V36.5C30.8749 36.5995 30.8354 36.6948 30.765 36.7652C30.6947 36.8355 30.5993 36.875 30.4999 36.875ZM24.1249 21.5C24.1249 21.7984 24.0064 22.0845 23.7954 22.2955C23.5844 22.5065 23.2982 22.625 22.9999 22.625H10.9999C10.7015 22.625 10.4154 22.5065 10.2044 22.2955C9.99341 22.0845 9.87488 21.7984 9.87488 21.5C9.87488 21.2016 9.99341 20.9155 10.2044 20.7045C10.4154 20.4935 10.7015 20.375 10.9999 20.375H22.9999C23.2982 20.375 23.5844 20.4935 23.7954 20.7045C24.0064 20.9155 24.1249 21.2016 24.1249 21.5ZM24.1249 27.5C24.1249 27.7984 24.0064 28.0845 23.7954 28.2955C23.5844 28.5065 23.2982 28.625 22.9999 28.625H10.9999C10.7015 28.625 10.4154 28.5065 10.2044 28.2955C9.99341 28.0845 9.87488 27.7984 9.87488 27.5C9.87488 27.2016 9.99341 26.9155 10.2044 26.7045C10.4154 26.4935 10.7015 26.375 10.9999 26.375H22.9999C23.2982 26.375 23.5844 26.4935 23.7954 26.7045C24.0064 26.9155 24.1249 27.2016 24.1249 27.5Z" fill="#36AB6C" stroke="#36AB6C" stroke-width="1.2"/>
</svg>
