<svg width="20" height="20" viewBox="0 0 48 48" fill="none" xmlns="http://www.w3.org/2000/svg">
<path d="M3.99969 18.0008C5.59099 18.0008 7.11712 18.6329 8.24234 19.7582C9.36755 20.8834 9.99969 22.4095 9.99969 24.0008C9.99969 25.5921 9.36755 27.1182 8.24234 28.2434C7.11712 29.3687 5.59099 30.0008 3.99969 30.0008V34.0008C3.99969 35.0617 4.42112 36.0791 5.17127 36.8292C5.92141 37.5794 6.93883 38.0008 7.99969 38.0008H39.9997C41.0606 38.0008 42.078 37.5794 42.8281 36.8292C43.5783 36.0791 43.9997 35.0617 43.9997 34.0008V30.0008C42.4084 30.0008 40.8823 29.3687 39.7571 28.2434C38.6318 27.1182 37.9997 25.5921 37.9997 24.0008C37.9997 22.4095 38.6318 20.8834 39.7571 19.7582C40.8823 18.6329 42.4084 18.0008 43.9997 18.0008V14.0008C43.9997 12.9399 43.5783 11.9225 42.8281 11.1724C42.078 10.4222 41.0606 10.0008 39.9997 10.0008H7.99969C6.93883 10.0008 5.92141 10.4222 5.17127 11.1724C4.42112 11.9225 3.99969 12.9399 3.99969 14.0008V18.0008Z" stroke="#AB0000" stroke-width="3.6" stroke-linecap="round" stroke-linejoin="round"/>
<path d="M17.9999 23.9992L21.9999 27.9992L29.9999 19.9992" stroke="#AB0000" stroke-width="3.6" stroke-linecap="round" stroke-linejoin="round"/>
</svg>
