<svg width="17.188228607177734" height="15.3123779296875" viewBox="0 0 44 39" fill="none" xmlns="http://www.w3.org/2000/svg">
<path d="M42.0759 31.4544L25.6772 2.9788C25.3005 2.33838 24.7631 1.80744 24.1182 1.43855C23.4733 1.06966 22.7432 0.87561 22.0003 0.87561C21.2573 0.87561 20.5272 1.06966 19.8823 1.43855C19.2374 1.80744 18.7 2.33838 18.3234 2.9788L1.92466 31.4544C1.5637 32.0723 1.37347 32.7751 1.37347 33.4907C1.37347 34.2063 1.5637 34.909 1.92466 35.5269C2.29627 36.1718 2.83294 36.7061 3.47949 37.0749C4.12604 37.4436 4.85914 37.6335 5.60341 37.625H38.3972C39.1408 37.6329 39.8731 37.4426 40.5189 37.0739C41.1648 36.7052 41.7009 36.1713 42.0722 35.5269C42.4337 34.9093 42.6246 34.2068 42.6252 33.4912C42.6259 32.7756 42.4363 32.0726 42.0759 31.4544ZM40.124 34.4C39.9488 34.7014 39.6964 34.9505 39.3929 35.1219C39.0894 35.2933 38.7457 35.3806 38.3972 35.375H5.60341C5.25489 35.3806 4.91118 35.2933 4.60766 35.1219C4.30414 34.9505 4.05177 34.7014 3.87653 34.4C3.71262 34.1243 3.6261 33.8095 3.6261 33.4888C3.6261 33.168 3.71262 32.8532 3.87653 32.5775L20.2734 4.10192C20.4527 3.80414 20.7059 3.55777 21.0085 3.38674C21.311 3.21571 21.6527 3.12584 22.0003 3.12584C22.3479 3.12584 22.6895 3.21571 22.9921 3.38674C23.2947 3.55777 23.5479 3.80414 23.7272 4.10192L40.1259 32.5775C40.2895 32.8534 40.3757 33.1683 40.3754 33.489C40.3751 33.8098 40.2882 34.1245 40.124 34.4ZM20.8753 23V15.5C20.8753 15.2017 20.9938 14.9155 21.2048 14.7045C21.4158 14.4936 21.7019 14.375 22.0003 14.375C22.2987 14.375 22.5848 14.4936 22.7958 14.7045C23.0068 14.9155 23.1253 15.2017 23.1253 15.5V23C23.1253 23.2984 23.0068 23.5846 22.7958 23.7955C22.5848 24.0065 22.2987 24.125 22.0003 24.125C21.7019 24.125 21.4158 24.0065 21.2048 23.7955C20.9938 23.5846 20.8753 23.2984 20.8753 23ZM23.8753 29.75C23.8753 30.1209 23.7653 30.4834 23.5593 30.7917C23.3533 31.1001 23.0604 31.3404 22.7178 31.4823C22.3752 31.6242 21.9982 31.6614 21.6345 31.589C21.2708 31.5167 20.9367 31.3381 20.6745 31.0759C20.4122 30.8136 20.2337 30.4795 20.1613 30.1158C20.089 29.7521 20.1261 29.3751 20.268 29.0325C20.4099 28.6899 20.6502 28.3971 20.9586 28.191C21.2669 27.985 21.6294 27.875 22.0003 27.875C22.4976 27.875 22.9745 28.0726 23.3261 28.4242C23.6777 28.7758 23.8753 29.2528 23.8753 29.75Z" fill="#F27C15" stroke="#F27C15" stroke-width="1.2"/>
</svg>
