<svg width="464" height="89" viewBox="0 0 464 89" fill="none" xmlns="http://www.w3.org/2000/svg">
<path d="M316.182 0.137871C311.164 0.661259 306.704 2.39072 302.825 5.30349C301.607 6.2251 299.423 8.35279 298.376 9.6385C295.418 13.2908 293.438 17.9331 292.79 22.746C292.551 24.5096 292.516 28.2302 292.733 29.8913C293.961 39.6537 299.992 47.5614 308.877 51.1C313.03 52.7498 317.979 53.2959 323.008 52.636C328.743 51.885 333.578 49.4843 338.118 45.1265C338.755 44.5007 339.278 43.9432 339.278 43.8749C339.278 43.7384 333.737 38.0266 333.612 38.0266C333.567 38.0266 333.146 38.368 332.679 38.789C331.496 39.8243 329.505 41.3035 328.231 42.0772C325.204 43.9204 322.849 44.5576 318.969 44.5576C317.172 44.5576 316.614 44.5121 315.647 44.3073C312.382 43.6018 309.697 42.1455 307.364 39.8016C304.156 36.5816 302.358 32.3262 302.119 27.3427C301.63 17.5576 307.979 9.49059 316.99 8.43243C319.39 8.15936 322.428 8.46657 324.726 9.24027C327.07 10.014 330.7 12.301 332.736 14.258L333.203 14.7017L336.013 11.459C337.56 9.68401 338.857 8.14798 338.891 8.05696C338.96 7.87491 337.492 6.55507 335.785 5.26935C332.201 2.57276 328.174 0.945709 323.463 0.297161C322.018 0.0923576 317.524 0.00133514 316.182 0.137871Z" fill="black"/>
<path d="M58.1961 0.592857C56.3985 0.695259 54.6236 0.934196 52.6211 1.34381C50.8348 1.7079 50.5618 1.78755 50.6073 1.95822C50.63 2.04924 54.4984 8.76226 54.6691 8.98982C54.6805 9.0012 55.2493 8.92156 55.932 8.81915C57.7069 8.5347 62.895 8.5347 64.6813 8.81915C66.5586 9.12636 68.3676 9.54735 69.8808 10.048C79.3697 13.1883 86.731 20.6637 89.7688 30.2553L90.1442 31.4272H94.4563H98.757L98.6888 31.1087C97.3121 25.0556 94.809 19.8444 90.9748 15.0543C89.5754 13.3021 86.8448 10.5486 85.1609 9.20601C77.4355 3.02775 68.0946 0.0467129 58.1961 0.592857Z" fill="url(#paint0_linear_143_1119)"/>
<path d="M139.944 0.695312C139.853 0.865982 117.814 51.2592 117.564 51.8849C117.519 51.9987 118.44 52.0215 122.138 51.9987L126.769 51.9646L129.363 45.8774L131.957 39.7901L144.062 39.7674L156.157 39.7332L158.717 45.8774L161.277 52.0101L166.032 52.0215C168.638 52.0215 170.777 51.9874 170.777 51.9532C170.777 51.8394 148.454 0.76358 148.34 0.615665C148.249 0.513264 147.271 0.47913 144.142 0.47913C140.228 0.47913 140.057 0.490509 139.944 0.695312ZM148.477 21.6422L152.778 31.598L144.119 31.6321C139.363 31.6435 135.45 31.6321 135.415 31.598C135.393 31.5752 137.304 27.0126 139.671 21.4715C142.424 15.043 144.017 11.4589 144.074 11.5499C144.131 11.6182 146.11 16.1694 148.477 21.6422Z" fill="black"/>
<path d="M255.096 0.957005C254.982 1.23008 250.01 12.6081 244.048 26.2503C238.086 39.8925 233.114 51.2705 233.001 51.5436L232.796 52.0215L237.426 51.9987L242.057 51.9646L244.663 45.8432L247.268 39.7332H259.351H271.423L273.994 45.8432L276.554 51.9646L281.298 51.9987C283.915 52.0101 286.031 51.976 286.031 51.9305C286.031 51.8736 280.991 40.2908 274.824 26.182L263.629 0.536018L259.465 0.501884L255.301 0.47913L255.096 0.957005ZM263.731 21.5853C266.064 26.9671 267.987 31.4387 268.021 31.5069C268.066 31.6207 266.291 31.6549 259.362 31.6549C254.572 31.6549 250.647 31.6321 250.647 31.6093C250.647 31.5752 257.826 14.804 259.146 11.7434C259.294 11.3906 259.328 11.3679 259.408 11.5727C259.453 11.6978 261.399 16.2035 263.731 21.5853Z" fill="black"/>
<path d="M179.538 26.4779V52.0215H184.032H188.526L188.549 33.9418L188.583 15.8622L202.566 33.9418L216.549 52.0215H220.349H224.138V26.4779V0.93425H219.643H215.149L215.127 18.5246L215.092 36.115L201.496 18.5246L187.9 0.93425H183.725H179.538V26.4779Z" fill="black"/>
<path d="M349.177 26.4779V52.0215H353.671H358.165V26.4779V0.93425H353.671H349.177V26.4779Z" fill="black"/>
<path d="M368.177 5.08722V9.24019H376.255H384.333V30.6308V52.0215H388.884H393.435V30.6308V9.24019H401.513H409.591V5.08722V0.93425H388.884H368.177V5.08722Z" fill="black"/>
<path d="M423.939 16.3628L434.053 31.7914V41.9064V52.0215H438.604H443.155V41.8609V31.7117L453.281 16.3856C458.856 7.9431 463.407 1.02527 463.407 0.991138C463.407 0.957005 461.086 0.93425 458.265 0.93425L453.111 0.945629L445.943 12.1871C442.006 18.3767 438.741 23.4172 438.707 23.3944C438.661 23.3717 435.441 18.3085 431.539 12.1416L424.462 0.93425H419.137H413.812L423.939 16.3628Z" fill="black"/>
<path d="M43.9969 1.62836C43.9059 1.77628 36.6584 14.3148 27.8977 29.4931C19.1484 44.6713 9.30683 61.7156 6.04148 67.3705C2.77612 73.0253 0.125156 77.6676 0.147912 77.6903C0.170667 77.7131 8.79484 77.7244 19.3191 77.7131L38.4561 77.6789L37.3525 77.0076C31.7206 73.5373 26.1683 67.8825 22.6072 62.0114C21.5377 60.2478 21.1281 59.4286 21.2191 59.2011C21.2532 59.0987 26.4414 50.0987 32.7332 39.1871L44.179 19.3553L44.7251 20.2997C45.0209 20.8231 50.8121 30.8471 57.5931 42.5892L69.915 63.9457L70.7114 63.6612C71.9174 63.2289 73.8288 62.2504 74.9438 61.4767C75.9337 60.794 77.5038 59.4969 77.5721 59.3035C77.6062 59.2124 44.4748 1.70801 44.2586 1.45769C44.2017 1.41218 44.088 1.48045 43.9969 1.62836Z" fill="url(#paint1_linear_143_1119)"/>
<path d="M89.8939 48.3464C87.9142 54.8432 84.0117 60.4185 78.6757 64.3666C76.9804 65.6182 75.9906 66.2326 74.1815 67.1429C69.6533 69.4412 65.3867 70.4539 60.2441 70.4539C55.1924 70.4539 51.0624 69.5095 46.591 67.3249C40.3903 64.2984 35.2362 59.0759 32.2553 52.7838C31.8799 51.9987 31.5499 51.3502 31.5158 51.3388C31.4703 51.3388 26.9648 58.7459 26.8737 58.9735C26.8169 59.0986 28.2504 61.3401 29.2061 62.6258C30.9583 64.981 33.5751 67.7573 35.7255 69.5436C41.4825 74.311 48.4797 77.3034 56.1481 78.2706C58.5147 78.5664 63.0429 78.5322 65.4664 78.2023C68.7545 77.7585 71.9971 76.9279 74.8414 75.7901C75.6265 75.4829 76.2978 75.2326 76.3547 75.2326C76.4002 75.2326 76.7643 75.7901 77.1625 76.4842L77.8792 77.7358H83.0902H88.3125L88.0963 77.3603C87.9711 77.1669 87.0495 75.5512 86.0256 73.7762L84.171 70.5676L84.4896 70.3059C88.1645 67.4387 91.6916 63.5019 93.9671 59.7016C96.2767 55.8673 97.7103 52.2263 98.8025 47.4362L98.8708 47.129H94.5701H90.2694L89.8939 48.3464Z" fill="url(#paint2_linear_143_1119)"/>
<path d="M113.548 63.0583V63.9685H288.534H463.521V63.0583V62.148H288.534H113.548V63.0583Z" fill="url(#paint3_linear_143_1119)"/>
<path d="M184.771 72.6725V73.5259H185.681H186.592V72.6725V71.8192H185.681H184.771V72.6725Z" fill="black"/>
<path d="M327.047 71.933C322.61 72.6157 319.925 77.0418 321.381 81.2858C322.132 83.4476 323.645 84.9153 325.91 85.6549C327.047 86.0304 328.879 86.0873 330.062 85.7801C331.098 85.507 332.509 84.7788 333.225 84.153L333.828 83.6182L333.351 83.129C333.077 82.8559 332.827 82.6284 332.793 82.6284C332.747 82.6284 332.418 82.8559 332.065 83.1404C330.119 84.6423 327.764 84.9495 325.75 83.9596C322.292 82.2643 321.632 77.3035 324.51 74.7206C326.547 72.8888 329.596 72.866 331.974 74.6638C332.304 74.9141 332.611 75.1189 332.656 75.1189C332.702 75.1189 332.975 74.8799 333.248 74.5955L333.76 74.0721L333.203 73.5828C331.746 72.2858 329.209 71.6144 327.047 71.933Z" fill="black"/>
<path d="M419.376 72.6725V73.5259H420.286H421.197V72.6725V71.8192H420.286H419.376V72.6725Z" fill="black"/>
<path d="M434.963 72.6725V73.5259H435.874H436.784V72.6725V71.8192H435.874H434.963V72.6725Z" fill="black"/>
<path d="M229.121 72.1493C228.211 72.4451 227.539 72.8661 227.005 73.4691C225.821 74.8231 225.912 76.9508 227.209 78.1227C227.892 78.7371 228.689 79.0557 230.93 79.6246C233.103 80.1594 233.945 80.5348 234.355 81.1493C234.582 81.4906 234.616 81.6613 234.582 82.2871C234.514 83.55 233.786 84.2213 232.204 84.4603C230.566 84.722 228.711 84.1986 227.221 83.0721L226.606 82.6056L226.117 83.1632C225.844 83.459 225.628 83.7321 225.628 83.7662C225.617 83.9027 226.868 84.7333 227.608 85.086C228.95 85.7346 230.099 85.9622 231.635 85.8939C233.672 85.8142 234.901 85.2567 235.686 84.0734C236.619 82.6398 236.482 80.8534 235.344 79.7498C234.707 79.1354 233.57 78.6575 231.476 78.1341C230.407 77.8724 229.326 77.5424 229.075 77.4173C227.471 76.5981 227.357 74.6866 228.859 73.8104C230.293 72.9685 232.659 73.2757 234.559 74.55L234.923 74.789L235.413 74.1973L235.902 73.617L235.617 73.4008C235.037 72.9571 233.786 72.3768 232.944 72.1606C231.795 71.8648 230.031 71.8648 229.121 72.1493Z" fill="black"/>
<path d="M115.425 72.172C115.391 72.263 115.38 75.3465 115.391 79.0443L115.425 85.7573H116.222H117.018L117.052 83.3338L117.075 80.9217H119.339C121.228 80.9217 121.74 80.8875 122.491 80.6941C124.015 80.3073 125.13 79.4539 125.733 78.2137C125.961 77.7586 126.006 77.5083 126.006 76.4843C126.006 75.4261 125.972 75.2099 125.71 74.6638C125.176 73.5487 124.14 72.7409 122.638 72.3085C121.774 72.0582 115.516 71.9444 115.425 72.172ZM122.365 73.8104C123.799 74.3224 124.402 75.1303 124.402 76.5411C124.402 77.2124 124.356 77.4286 124.095 77.8837C123.742 78.4754 123.094 78.976 122.252 79.2832C121.797 79.4425 121.216 79.488 119.385 79.5336L117.075 79.5791V76.5411V73.5032L119.441 73.5487C121.319 73.5942 121.91 73.6398 122.365 73.8104Z" fill="black"/>
<path d="M283.267 72.684C283.221 72.7295 283.187 73.4236 283.187 74.2314V75.6878H282.447H281.696L281.731 76.3363L281.765 76.9963L282.482 77.0304L283.187 77.0645V80.1138C283.187 81.7978 283.244 83.4476 283.301 83.7775C283.46 84.6081 283.915 85.2339 284.609 85.5866C285.098 85.8256 285.326 85.8711 286.259 85.8711C287.021 85.8711 287.465 85.8142 287.772 85.6777C288.182 85.4842 288.193 85.4729 288.193 84.8585C288.193 84.1871 288.159 84.153 287.658 84.3464C287.169 84.5285 286.009 84.5057 285.599 84.2896C284.894 83.9255 284.894 83.9255 284.894 80.33V77.0531H286.543H288.193V76.3705V75.6878H286.543H284.905L284.871 74.1745L284.837 72.6726L284.097 72.6385C283.688 72.6157 283.312 72.6385 283.267 72.684Z" fill="black"/>
<path d="M426.203 74.1518V75.6879H425.463H424.712L424.746 76.3364L424.78 76.9963L425.497 77.0305L426.203 77.0646V80.2846C426.203 83.9824 426.271 84.4375 426.988 85.143C427.716 85.8712 429.229 86.1329 430.503 85.7574L431.095 85.5753V84.8927C431.095 84.2782 431.072 84.21 430.902 84.2782C430.094 84.6082 428.694 84.4944 428.273 84.0621C427.864 83.6525 427.795 83.1291 427.795 79.9774V77.0532H429.502H431.209V76.3705V75.6879H429.502H427.795V74.1518V72.6158H426.999H426.203V74.1518Z" fill="black"/>
<path d="M133.117 75.6195C130.864 76.2566 129.408 77.9064 129.09 80.2162C128.987 80.9216 129.203 82.1277 129.59 82.9355C130.603 85.1315 133.185 86.3831 135.62 85.8824C138.294 85.3249 140.057 83.2655 140.057 80.6941C140.057 77.7244 137.611 75.4374 134.482 75.4716C134.016 75.4716 133.402 75.5398 133.117 75.6195ZM136.098 77.1441C136.394 77.2693 136.883 77.6106 137.19 77.8951C138.738 79.3401 138.829 81.8091 137.407 83.3906C137.179 83.6296 136.724 83.9823 136.394 84.1757C135.836 84.4829 135.7 84.5057 134.596 84.5057C133.561 84.5057 133.333 84.4716 132.912 84.244C132.15 83.8344 131.445 83.129 131.103 82.4121C130.83 81.8546 130.796 81.6498 130.796 80.6941C130.796 79.8407 130.853 79.4994 131.035 79.0784C131.479 78.1113 132.366 77.3148 133.379 76.9848C134.062 76.7573 135.427 76.8369 136.098 77.1441Z" fill="black"/>
<path d="M165.282 75.6878C163.62 76.2112 162.483 77.44 161.959 79.2605C161.686 80.1821 161.766 81.866 162.119 82.7535C163.472 86.1442 168.035 87.0886 170.891 84.5626L171.403 84.1189L170.891 83.6752L170.379 83.22L169.98 83.5727C169.764 83.7548 169.264 84.0734 168.854 84.2668C168.206 84.5626 167.978 84.6081 167.136 84.6081C166.328 84.6195 166.067 84.5626 165.543 84.3237C165.191 84.1644 164.724 83.8572 164.485 83.6638C164.053 83.2769 163.564 82.3894 163.438 81.7409L163.359 81.3768H167.523C172.301 81.3768 171.869 81.5133 171.687 80.1138C171.494 78.5323 170.97 77.44 170.026 76.6094C168.809 75.5399 166.897 75.1644 165.282 75.6878ZM168.285 77.1214C169.184 77.5652 169.878 78.5778 170.049 79.6815L170.128 80.1252H166.738H163.359L163.438 79.7497C163.939 77.3604 166.249 76.0974 168.285 77.1214Z" fill="black"/>
<path d="M180.186 75.5855C179.162 75.8244 178.058 76.6095 177.467 77.5197L177.091 78.1114L177.057 76.894L177.023 75.6879H176.238H175.442L175.464 80.717L175.499 85.7574L176.272 85.7915L177.035 85.8257V83.6866C177.035 82.5147 177.091 81.1948 177.148 80.7739C177.433 78.7827 178.844 77.3604 180.687 77.2012L181.358 77.1329V76.3023V75.4603L180.994 75.4717C180.789 75.4831 180.425 75.5286 180.186 75.5855Z" fill="black"/>
<path d="M194.954 75.6081C194.271 75.8357 193.987 76.0064 193.339 76.6322L192.736 77.2011V76.4387V75.6878H191.882H191.029L191.052 80.7169L191.086 85.7573H191.882H192.679L192.736 82.3439C192.792 79.1239 192.804 78.9078 193.043 78.4754C193.589 77.4514 194.579 76.8939 195.864 76.9052C197.093 76.9166 197.867 77.3262 198.345 78.2251C198.584 78.6802 198.595 78.8509 198.652 82.2301L198.709 85.7573H199.505H200.302L200.336 82.6284C200.358 80.751 200.313 79.2036 200.245 78.7599C199.994 77.2921 199.346 76.3932 198.083 75.813C197.332 75.4716 195.716 75.3578 194.954 75.6081Z" fill="black"/>
<path d="M207.629 75.6309C205.319 76.2681 203.84 78.2934 204.033 80.569C204.136 81.8319 204.489 82.5715 205.41 83.4931C206.036 84.1189 206.377 84.3578 206.901 84.5513C209.04 85.3591 210.849 85.0405 212.441 83.5614L213.135 82.9128L213.067 84.0051C212.942 86.1897 212.009 87.2592 210.029 87.5095C208.63 87.6916 207.242 87.4185 205.956 86.7245C205.604 86.531 205.285 86.3831 205.239 86.3831C205.148 86.3831 204.568 87.3389 204.568 87.4982C204.568 87.6916 206.207 88.4198 207.185 88.6587C210.246 89.3869 213.101 88.4881 214.148 86.4514C214.626 85.5298 214.694 84.7561 214.694 80.0911V75.6878H213.898H213.101V76.5525V77.4286L212.498 76.8597C211.816 76.2112 211.292 75.9154 210.382 75.6423C209.654 75.4261 208.368 75.4147 207.629 75.6309ZM210.962 77.1556C211.702 77.4742 212.51 78.2479 212.828 78.9305C213.465 80.2845 212.965 81.9685 211.679 82.8559C210.905 83.3907 210.314 83.5614 209.267 83.5728C208.425 83.5841 208.266 83.55 207.56 83.1859C206.719 82.7649 206.059 82.0254 205.831 81.263C205.672 80.7169 205.683 79.4994 205.854 79.0216C206.218 78.0544 207.196 77.2011 208.254 76.928C208.857 76.7687 210.382 76.8939 210.962 77.1556Z" fill="black"/>
<path d="M243.764 75.7448C243.297 75.9382 242.899 76.2226 242.489 76.6436L241.886 77.258V76.473V75.6879H241.09H240.294V80.7511V85.8143H241.079H241.875L241.909 82.435C241.943 79.1923 241.955 79.0216 242.194 78.5779C242.819 77.3946 243.604 76.9053 244.833 76.9053C245.96 76.9053 246.676 77.3263 247.188 78.3048C247.382 78.6575 247.416 79.0671 247.461 82.2302L247.518 85.7574L248.281 85.7915L249.043 85.8257L249.077 82.435C249.111 78.6917 249.123 78.6348 249.862 77.7928C250.863 76.655 252.945 76.5754 253.901 77.6449C254.561 78.3617 254.572 78.43 254.629 82.2302L254.686 85.7574H255.483H256.279L256.313 82.856C256.359 78.4869 256.165 77.4515 255.096 76.4502C254.333 75.7334 253.685 75.5172 252.297 75.5172C251.239 75.5172 251.102 75.54 250.397 75.8927C249.896 76.143 249.464 76.4616 249.134 76.8371L248.633 77.406L248.326 76.9395C247.45 75.6082 245.413 75.0735 243.764 75.7448Z" fill="black"/>
<path d="M263.447 75.5627C262.776 75.6765 261.786 75.9496 261.194 76.1999L260.773 76.3706L261.001 76.9509C261.115 77.2694 261.24 77.5539 261.251 77.5766C261.274 77.5994 261.672 77.4856 262.138 77.3263C262.685 77.1329 263.322 77.0077 264.004 76.9736C266.178 76.8371 267.304 77.588 267.543 79.3175C267.622 79.8864 267.611 79.9205 267.418 79.8522C267.065 79.7157 265.085 79.4426 264.471 79.4426C262.264 79.4426 260.489 80.3643 260.022 81.741C259.59 83.0722 260.045 84.4603 261.16 85.2227C262.002 85.7802 262.764 85.9622 264.118 85.9053C265.449 85.8598 266.155 85.5868 267.076 84.7789L267.6 84.3124V85.0747V85.8257L268.373 85.7916L269.136 85.7574L269.17 82.6854C269.181 80.9332 269.147 79.2833 269.079 78.8396C268.84 77.2922 267.975 76.2227 266.598 75.8017C265.768 75.54 264.289 75.4262 263.447 75.5627ZM266.86 80.9559L267.543 81.1038L267.531 81.9003C267.52 83.0722 267.088 83.7321 265.95 84.3124C265.256 84.6651 263.891 84.7789 263.106 84.5627C262.412 84.3693 261.718 83.7549 261.57 83.1974C261.274 82.1165 261.922 81.229 263.276 80.8421C263.879 80.6715 265.813 80.7284 266.86 80.9559Z" fill="black"/>
<path d="M278.067 75.6196C276.963 75.9268 276.144 76.5071 275.496 77.4629L275.052 78.1114L275.018 76.894L274.984 75.6879H274.199H273.402L273.425 80.717L273.459 85.7574L274.233 85.7915L274.995 85.8257V83.8004C274.995 82.6854 275.052 81.3996 275.109 80.9445C275.382 78.8168 276.759 77.3718 278.647 77.2012L279.319 77.1329V76.3023V75.4603L278.954 75.4717C278.75 75.4717 278.351 75.54 278.067 75.6196Z" fill="black"/>
<path d="M295.02 75.6081C293.199 76.1315 291.936 77.4627 291.436 79.3856C290.867 81.6043 291.777 84.0051 293.631 85.177C294.894 85.9735 296.92 86.2124 298.387 85.7345C299.127 85.4956 300.139 84.8812 300.595 84.3806L300.879 84.0847L300.435 83.6979C299.912 83.2428 299.798 83.2314 299.514 83.5386C299.138 83.9482 298.171 84.4261 297.42 84.5626C295.293 84.9495 293.427 83.8003 292.983 81.8433L292.881 81.3768L297.056 81.354L301.22 81.3199L301.254 80.8761C301.311 80.1479 301.05 78.9305 300.663 78.1113C300.185 77.1214 299.172 76.1543 298.239 75.7902C297.432 75.483 295.793 75.3919 295.02 75.6081ZM297.591 76.9962C298.501 77.3717 299.389 78.5664 299.536 79.6132L299.605 80.1252H296.237H292.881L292.994 79.6359C293.222 78.5892 293.984 77.531 294.792 77.11C295.566 76.7118 296.783 76.6663 297.591 76.9962Z" fill="black"/>
<path d="M309.583 75.6423C309.241 75.7333 308.752 75.9267 308.502 76.086C308.047 76.3477 307.205 77.1783 306.829 77.7358C306.647 78.0089 306.636 77.9861 306.636 76.8483L306.625 75.6878H305.771H304.918L304.941 80.7169L304.975 85.7573H305.771H306.568L306.625 83.0266C306.681 80.5348 306.716 80.239 306.943 79.6473C307.478 78.3047 308.775 77.3262 310.174 77.2011L310.834 77.1328V76.3022V75.4602L310.527 75.4716C310.345 75.4716 309.924 75.5513 309.583 75.6423Z" fill="black"/>
<path d="M340.757 75.6194C338.015 76.3931 336.366 78.828 336.787 81.4905C337.253 84.4943 340.234 86.5082 343.26 85.8824C345.104 85.4956 346.469 84.4602 347.231 82.8672C347.629 82.0253 347.641 81.9684 347.641 80.6827C347.641 79.3969 347.629 79.3514 347.22 78.5208C346.264 76.5752 344.364 75.4488 342.123 75.4715C341.656 75.4715 341.042 75.5398 340.757 75.6194ZM343.738 77.1441C344.034 77.2693 344.523 77.6106 344.83 77.895C346.378 79.3401 346.469 81.8091 345.047 83.3906C344.819 83.6296 344.364 83.9823 344.034 84.1757C343.477 84.4829 343.34 84.5057 342.236 84.5057C341.201 84.5057 340.974 84.4715 340.553 84.244C339.79 83.8457 339.13 83.1631 338.766 82.4349C338.47 81.8432 338.425 81.6612 338.425 80.694C338.425 79.7383 338.459 79.5449 338.744 78.9873C339.267 77.9633 340.006 77.3148 341.019 76.9848C341.702 76.7572 343.067 76.8369 343.738 77.1441Z" fill="black"/>
<path d="M355.207 75.6537C354.547 75.8813 354.114 76.1771 353.591 76.7574L353.17 77.2239L353.159 76.4502V75.6879H352.362H351.566V80.7511V85.8257L352.34 85.7915L353.102 85.7574L353.159 82.344L353.216 78.9306L353.523 78.4186C354.149 77.3604 354.922 76.9053 356.083 76.9053C357.391 76.9167 358.347 77.6563 358.609 78.8851C358.677 79.2151 358.734 80.808 358.734 82.6398V85.8257L359.507 85.7915L360.27 85.7574L360.327 82.344L360.384 78.9306L360.713 78.3276C361.248 77.3604 362.045 76.9053 363.171 76.9053C364.104 76.9053 364.844 77.2125 365.264 77.7701C365.845 78.5324 365.902 78.9534 365.902 82.5374V85.8143H366.698H367.494V82.2644C367.494 79.3857 367.46 78.6007 367.312 78.0886C366.846 76.4161 365.492 75.4603 363.626 75.4603C362.272 75.4603 361.237 75.9041 360.384 76.8371L359.94 77.3377L359.189 76.5754C358.586 75.9723 358.313 75.7903 357.824 75.6424C357.061 75.4148 355.878 75.4148 355.207 75.6537Z" fill="black"/>
<path d="M375.482 75.6765C374.822 75.9041 374.583 76.0747 373.957 76.7574L373.525 77.2239V76.4502V75.6879H372.671H371.818L371.841 80.717L371.875 85.7574H372.671H373.468L373.525 82.344C373.582 79.124 373.593 78.9079 373.832 78.4755C374.48 77.2694 375.652 76.7005 376.972 76.9508C377.791 77.0988 378.349 77.5084 378.724 78.2252L379.043 78.8168L379.077 82.3213L379.122 85.8257L379.873 85.7915L380.636 85.7574L380.692 82.344C380.749 78.7372 380.772 78.612 381.33 77.8725C382.319 76.5867 384.766 76.5754 385.699 77.8725C386.199 78.5551 386.267 79.1582 386.267 82.6285V85.8143H387.075H387.872L387.838 82.0254L387.803 78.2479L387.508 77.6221C386.848 76.2226 385.903 75.5855 384.288 75.4945C383.514 75.4376 383.184 75.4717 382.513 75.6765C381.796 75.8927 381.591 76.0292 380.977 76.6323L380.272 77.3377L379.543 76.5867C378.952 75.9723 378.701 75.7903 378.201 75.6424C377.382 75.4034 376.232 75.4148 375.482 75.6765Z" fill="black"/>
<path d="M409.648 75.6195C408.966 75.8357 408.693 76.0064 408.033 76.6322L407.43 77.2011V76.4387V75.6878H406.576H405.723L405.746 80.7169L405.78 85.7573H406.576H407.373L407.43 82.3439C407.487 79.1239 407.498 78.9078 407.737 78.4754C408.283 77.4514 409.273 76.8939 410.559 76.9052C411.787 76.9166 412.561 77.3262 413.039 78.2251C413.278 78.6802 413.289 78.8509 413.346 82.2301L413.403 85.7573H414.199H414.996V82.1733C414.996 79.0102 414.973 78.5209 414.791 77.9975C414.222 76.3591 412.823 75.4489 410.911 75.4716C410.468 75.4716 409.899 75.5399 409.648 75.6195Z" fill="black"/>
<path d="M444.099 75.6993C442.734 76.1316 441.528 77.3036 440.993 78.7372C440.675 79.5564 440.572 81.1152 440.766 81.9572C441.403 84.6537 443.917 86.3377 446.728 85.9395C447.808 85.7915 448.98 85.2682 449.754 84.5741L450.266 84.1076L449.754 83.6639L449.253 83.2201L448.821 83.5842C446.773 85.3478 443.644 84.8358 442.609 82.5716C442.484 82.3213 442.359 81.9458 442.325 81.7524L442.256 81.3769L446.432 81.3541L450.607 81.32L450.573 80.4666C450.55 79.545 450.323 78.6348 449.959 77.918C449.652 77.3263 448.821 76.4388 448.218 76.0861C447.126 75.4489 445.396 75.2897 444.099 75.6993ZM447.149 77.1215C448.047 77.5766 448.73 78.5551 448.912 79.6474L448.992 80.1253H445.601H442.222L442.302 79.7498C442.416 79.1923 442.848 78.2934 443.201 77.8725C444.134 76.7802 445.84 76.4502 447.149 77.1215Z" fill="black"/>
<path d="M456.376 75.631C455.591 75.8472 455.204 76.0634 454.772 76.4957C454.26 77.0077 454.055 77.4629 453.998 78.248C453.884 79.6474 454.669 80.4211 456.911 81.1038C458.879 81.7069 459.186 81.832 459.596 82.1847C460.039 82.583 460.165 82.9698 459.994 83.4932C459.55 84.8244 457.457 85.0292 455.284 83.937C454.726 83.6639 454.237 83.4591 454.191 83.4818C454.146 83.5046 453.964 83.7435 453.793 84.0052C453.463 84.4603 453.463 84.4717 453.679 84.6424C454.169 85.0179 455.522 85.5868 456.319 85.7688C457.468 86.0191 458.924 85.9509 459.732 85.5981C460.494 85.2568 461.302 84.4148 461.473 83.7549C461.678 83.0153 461.564 82.162 461.211 81.6158C460.79 80.99 459.994 80.5577 458.23 80.0002C455.955 79.2833 455.557 79.0103 455.557 78.1911C455.557 76.7688 457.752 76.3592 459.914 77.3946C460.688 77.7587 460.677 77.7701 461.12 77.0305L461.371 76.6095L461.018 76.382C459.846 75.6765 457.548 75.301 456.376 75.631Z" fill="black"/>
<path d="M150.149 75.9381C150.07 76.1429 149.444 77.9406 148.75 79.9204C148.067 81.9116 147.487 83.5386 147.453 83.5386C147.385 83.5386 147.328 83.3907 145.849 79.0671L144.7 75.6878H143.858C143.391 75.6878 143.016 75.7105 143.016 75.7333C143.016 75.7674 146.418 85.1429 146.6 85.6094C146.668 85.7801 146.816 85.8142 147.385 85.8142H148.101L149.501 81.8774C150.661 78.6347 150.923 77.9861 151.014 78.2023C151.06 78.3502 151.663 80.0342 152.345 81.9457C153.028 83.8572 153.619 85.507 153.654 85.6094C153.722 85.7801 153.87 85.8142 154.439 85.8142H155.133L156.714 81.4564C157.59 79.0671 158.421 76.7915 158.569 76.3932L158.83 75.6878H157.988H157.147L155.815 79.6246C155.076 81.7864 154.439 83.5045 154.382 83.459C154.336 83.4135 153.688 81.6271 152.937 79.4994L151.583 75.6309L150.946 75.5968C150.32 75.5626 150.297 75.574 150.149 75.9381Z" fill="black"/>
<path d="M184.885 80.7511V85.8257L185.659 85.7915L186.421 85.7574L186.455 80.717L186.478 75.6879H185.681H184.885V80.7511Z" fill="black"/>
<path d="M392.093 79.3515C392.127 82.8901 392.138 83.0493 392.389 83.6751C392.707 84.4488 393.424 85.2112 394.198 85.598C394.687 85.837 394.903 85.8711 396.109 85.8711C397.406 85.8711 397.508 85.8597 398.077 85.5411C398.407 85.3591 398.908 84.9609 399.181 84.665L399.693 84.1189V84.9609V85.8142H400.489H401.286V80.751V75.6878H400.501H399.704L399.67 79.0102L399.636 82.3439L399.329 82.9242C398.737 84.0506 397.588 84.6536 396.257 84.5285C395.267 84.4375 394.596 84.062 394.163 83.3338C393.97 83.0152 393.777 82.5487 393.731 82.3212C393.697 82.0822 393.663 80.4893 393.663 78.7826V75.6878H392.855H392.059L392.093 79.3515Z" fill="black"/>
<path d="M419.49 80.7511V85.8257L420.264 85.7915L421.026 85.7574L421.06 80.717L421.083 75.6879H420.286H419.49V80.7511Z" fill="black"/>
<path d="M435.077 80.751V85.8142H435.874H436.67V80.751V75.6878H435.874H435.077V80.751Z" fill="black"/>
<defs>
<linearGradient id="paint0_linear_143_1119" x1="100.664" y1="29.6072" x2="81.3087" y2="-7.10877" gradientUnits="userSpaceOnUse">
<stop stop-color="#D02F84"/>
<stop offset="1" stop-color="#643778"/>
</linearGradient>
<linearGradient id="paint1_linear_143_1119" x1="80.6383" y1="73.2246" x2="23.9978" y2="3.244" gradientUnits="userSpaceOnUse">
<stop stop-color="#D02F84"/>
<stop offset="1" stop-color="#643778"/>
</linearGradient>
<linearGradient id="paint2_linear_143_1119" x1="101.722" y1="76.6264" x2="86.6293" y2="34.4282" gradientUnits="userSpaceOnUse">
<stop stop-color="#D02F84"/>
<stop offset="1" stop-color="#643778"/>
</linearGradient>
<linearGradient id="paint3_linear_143_1119" x1="477.381" y1="63.8613" x2="477.369" y2="61.0969" gradientUnits="userSpaceOnUse">
<stop stop-color="#D02F84"/>
<stop offset="1" stop-color="#643778"/>
</linearGradient>
</defs>
</svg>
