<svg width="612" height="401" viewBox="0 0 612 401" fill="none" xmlns="http://www.w3.org/2000/svg">
<g clip-path="url(#clip0_1_2)">
<path d="M600.948 94.275L591.378 140.619L585.222 134.614L574.74 142.086L566.732 132.145L548.766 145.205L533.423 119.534L516.299 129.562L509.511 120.199L487.771 132.449L481.229 118.446L496.466 44.635L578.172 61.504L600.948 94.275Z" fill="#EBEBEB"/>
<path d="M578.17 61.504L600.949 94.271L572.613 88.421L578.17 61.504Z" fill="#DBDBDB"/>
<path d="M589.342 149.882L575.307 217.877L465.262 195.162L479.192 127.709L485.734 141.711L507.476 129.461L514.264 138.825L531.388 128.797L546.73 154.467L564.697 141.407L572.704 151.348L583.187 143.877L589.342 149.882Z" fill="#EBEBEB"/>
<path d="M431.832 141.913L319.682 148.853L310.773 4.88741L394.044 -0.265594L424.621 25.3794L431.832 141.913Z" fill="#EBEBEB"/>
<path d="M394.045 -0.265594L424.622 25.3794L395.743 27.1664L394.045 -0.265594Z" fill="#DBDBDB"/>
<path d="M362.956 96.598L362.522 93.351C361.39 86.62 363.234 79.093 369.083 71.217C374.355 64.253 377.217 59.185 376.901 53.542C376.543 47.145 372.29 43.105 364.381 43.422C359.865 43.675 354.933 45.461 351.93 48.02L348.477 40.286C352.448 37.044 359.485 34.637 366.132 34.264C380.556 33.456 387.576 41.997 388.11 51.528C388.588 60.058 384.166 66.47 378.546 73.957C373.393 80.788 371.695 86.42 372.43 92.795L372.738 96.049L362.956 96.598ZM361.18 114.312C360.92 109.671 363.873 106.234 368.262 105.988C372.652 105.742 375.845 108.835 376.105 113.476C376.351 117.866 373.656 121.414 369.015 121.674C364.626 121.92 361.426 118.702 361.18 114.312Z" fill="#DBDBDB"/>
<path d="M82.481 72.114L71.195 66.996L69.63 70.452C69.17 71.468 68.173 72.117 67.058 72.166C66.442 72.193 65.826 72.254 65.213 72.347C64.113 72.515 63.011 72.072 62.363 71.168L60.154 68.084L50.077 75.304L52.286 78.387C52.934 79.292 52.999 80.477 52.487 81.465C52.201 82.015 51.946 82.579 51.722 83.154C51.317 84.194 50.382 84.929 49.272 85.038L45.496 85.408L46.713 97.74L50.502 97.363C51.613 97.252 52.664 97.805 53.267 98.745C53.431 99 53.602 99.252 53.779 99.5C53.957 99.748 54.14 99.991 54.329 100.228C55.021 101.097 55.207 102.264 54.749 103.276L53.173 106.757L64.459 111.875L66.031 108.412C66.492 107.396 67.491 106.748 68.606 106.7C69.22 106.674 69.833 106.614 70.444 106.522C71.543 106.356 72.643 106.798 73.291 107.702L75.501 110.787L85.578 103.567L83.368 100.482C82.721 99.578 82.655 98.394 83.166 97.407C83.45 96.859 83.703 96.297 83.925 95.724C84.329 94.684 85.263 93.947 86.374 93.837L90.158 93.462L88.941 81.13L85.155 81.504C84.048 81.613 83 81.062 82.399 80.125C82.234 79.869 82.062 79.615 81.883 79.364C81.705 79.116 81.522 78.873 81.333 78.636C80.637 77.763 80.451 76.59 80.912 75.573L82.481 72.114ZM76.079 83.523C79.344 88.08 78.297 94.415 73.741 97.68C69.184 100.945 62.841 99.904 59.576 95.347C56.311 90.79 57.36 84.441 61.917 81.176C66.473 77.912 72.814 78.967 76.079 83.523Z" fill="#EBEBEB"/>
<path d="M592.383 235.713L584.864 240.052L586.193 242.353C586.584 243.03 586.547 243.862 586.12 244.517C585.884 244.879 585.668 245.254 585.471 245.641C585.118 246.336 584.416 246.783 583.637 246.783H580.979V255.467H583.637C584.416 255.467 585.118 255.914 585.471 256.609C585.668 256.996 585.884 257.371 586.12 257.733C586.547 258.388 586.585 259.22 586.193 259.897L584.864 262.198L592.383 266.537L593.715 264.225C594.105 263.547 594.849 263.174 595.63 263.214C595.842 263.225 596.054 263.23 596.268 263.23C596.482 263.23 596.696 263.225 596.908 263.214C597.686 263.174 598.426 263.544 598.815 264.218L600.154 266.536L607.672 262.197L606.341 259.889C605.95 259.212 605.99 258.379 606.418 257.725C606.653 257.365 606.869 256.991 607.065 256.606C607.419 255.912 608.121 255.466 608.9 255.466H611.557V246.782H608.9C608.121 246.782 607.419 246.336 607.065 245.642C606.869 245.257 606.653 244.883 606.418 244.523C605.99 243.868 605.951 243.036 606.341 242.358L607.672 240.05L600.154 235.711L598.822 238.02C598.432 238.695 597.69 239.067 596.911 239.027C596.698 239.016 596.485 239.011 596.268 239.011C596.054 239.011 595.841 239.016 595.629 239.027C594.848 239.067 594.104 238.694 593.713 238.017L592.383 235.713ZM596.27 244.014C600.197 244.014 603.378 247.195 603.378 251.122C603.378 255.049 600.197 258.237 596.27 258.237C592.343 258.237 589.155 255.049 589.155 251.122C589.155 247.195 592.342 244.014 596.27 244.014Z" fill="#EBEBEB"/>
<path d="M105.304 35.1632L98.408 40.4362L100.023 42.5462C100.498 43.1672 100.568 43.9972 100.23 44.701C100.042 45.09 99.876 45.49 99.731 45.9C99.471 46.634 98.832 47.168 98.059 47.269L95.424 47.612L96.545 56.224L99.18 55.881C99.953 55.78 100.707 56.133 101.146 56.776C101.391 57.135 101.654 57.479 101.935 57.807C102.443 58.401 102.587 59.222 102.287 59.943L101.266 62.397L109.282 65.729L110.303 63.265C110.603 62.543 111.292 62.077 112.072 62.015C112.284 61.998 112.496 61.976 112.708 61.949C112.92 61.921 113.131 61.889 113.339 61.85C114.105 61.71 114.887 61.982 115.36 62.6L116.987 64.726L123.884 59.453L122.267 57.336C121.792 56.715 121.723 55.884 122.063 55.18C122.25 54.792 122.416 54.394 122.561 53.986C122.822 53.253 123.46 52.72 124.232 52.619L126.868 52.276L125.747 43.6642L123.111 44.007C122.339 44.108 121.586 43.7562 121.146 43.1132C120.902 42.7562 120.639 42.4142 120.359 42.0872C119.85 41.4932 119.704 40.6722 120.004 39.9502L121.026 37.4902L113.009 34.1582L111.986 36.6192C111.687 37.3392 110.999 37.8032 110.222 37.8642C110.01 37.8812 109.796 37.9032 109.581 37.9312C109.369 37.9592 109.158 37.9912 108.949 38.0292C108.179 38.1702 107.394 37.8962 106.918 37.2742L105.304 35.1632ZM110.228 42.8932C114.122 42.3862 117.687 45.13 118.194 49.024C118.701 52.918 115.958 56.49 112.064 56.997C108.17 57.504 104.597 54.754 104.09 50.86C103.583 46.966 106.334 43.4002 110.228 42.8932Z" fill="#EBEBEB"/>
<path d="M53.818 260.784C54.212 251.107 54.054 241.412 53.42 231.749C52.112 211.818 48.831 192.042 44.325 172.595C41.789 161.648 38.665 150.887 35.411 140.137C35.313 139.812 34.795 139.904 34.885 140.242C44.949 178.138 53.206 217.246 52.638 256.638C52.479 267.663 51.203 278.491 50.156 289.446C50.128 289.739 50.61 289.856 50.677 289.555C52.753 280.181 53.428 270.358 53.818 260.784Z" fill="#EBEBEB"/>
<path d="M34.884 140.242C34.884 140.242 19.6378 178.94 23.0508 188.036C26.4648 197.132 33.5018 199.072 33.5018 199.072C33.5018 199.072 24.1738 212.39 30.6918 224.881C37.211 237.372 51.694 236.782 52.656 250.945C52.656 250.945 53.463 191.725 34.884 140.242Z" fill="#EBEBEB"/>
<path d="M50.999 226.494C51.018 226.429 51.013 226.36 50.983 226.291C48.842 199.978 44.174 173.747 36.195 148.444C36.172 148.369 36.049 148.393 36.069 148.471C39.09 159.791 41.778 171.172 44.075 182.615C42.095 180.576 39.505 179.404 36.797 178.557C36.746 178.541 36.721 178.614 36.769 178.635C39.589 179.854 42.29 181.267 44.283 183.656C44.728 185.899 45.164 188.143 45.578 190.39C42.171 186.582 37.446 184.693 32.718 182.897C32.651 182.872 32.616 182.974 32.681 183.001C37.605 185.006 42.51 187.589 45.846 191.832C47.009 198.254 48.027 204.699 48.908 211.163C46.417 208.561 43.343 206.812 39.817 205.953C39.711 205.927 39.652 206.084 39.759 206.115C43.382 207.158 46.498 209.186 48.979 212.021C48.997 212.041 49.016 212.051 49.036 212.064C49.341 214.338 49.629 216.615 49.899 218.895C47.981 217.259 45.861 216.014 43.527 215.051C43.465 215.026 43.432 215.122 43.492 215.148C45.863 216.157 47.996 217.612 49.874 219.372C49.901 219.397 49.928 219.394 49.955 219.404C50.209 221.571 50.462 223.739 50.681 225.911C47.186 221.699 42.864 218.651 37.75 216.678C37.65 216.639 37.599 216.792 37.695 216.834C42.667 218.996 47.05 222.421 50.439 226.64C50.532 226.756 50.653 226.775 50.76 226.741C51.09 230.071 51.385 233.406 51.629 236.748C51.632 236.794 51.707 236.798 51.705 236.752C51.514 233.331 51.275 229.912 50.999 226.494Z" fill="white"/>
<path d="M38.75 174.71C36.106 172.893 32.7457 172.117 29.5897 171.854C29.5137 171.848 29.5077 171.96 29.5817 171.97C32.8647 172.458 35.623 173.646 38.639 174.928C38.77 174.985 38.864 174.789 38.75 174.71Z" fill="white"/>
<path d="M40.599 215.681C38.507 214.425 36.12 213.716 33.7231 213.329C33.6391 213.316 33.6321 213.445 33.7141 213.459C36.148 213.9 38.304 214.766 40.516 215.844C40.61 215.891 40.688 215.735 40.599 215.681Z" fill="white"/>
<path d="M93.899 188.668C87.541 193.138 81.439 198.293 76.253 204.093C70.725 210.275 66.693 217.293 63.877 225.081C58.108 241.036 54.946 258.32 54.658 275.277C54.496 284.783 55.342 294.215 57.376 303.506C57.45 303.844 57.955 303.748 57.904 303.407C55.418 287.06 55.509 270.379 58.18 254.063C60.801 238.054 64.914 220.637 75.09 207.627C80.631 200.543 87.54 194.969 94.37 189.209C94.727 188.906 94.268 188.408 93.899 188.668Z" fill="#EBEBEB"/>
<path d="M56.9 263.751C56.9 263.751 62.136 254.933 69.763 247.308C77.39 239.683 83.814 234.264 84.805 229.221C85.797 224.178 77.165 220.464 77.165 220.464C77.165 220.464 87.72 222.359 90.608 217.929C93.496 213.5 94.89 187.844 94.89 187.844C94.89 187.844 75.689 201.553 66.742 220.77C57.796 239.987 56.9 263.751 56.9 263.751Z" fill="#EBEBEB"/>
<path d="M88.247 194.421C80.168 202.356 72.037 210.812 67.279 221.237C65.648 224.811 64.26 228.518 63.038 232.294C63.035 232.3 63.035 232.306 63.032 232.311C62.787 233.069 62.538 233.826 62.307 234.589C62.284 234.627 62.272 234.669 62.268 234.714C59.916 242.5 58.253 250.551 56.813 258.416C56.804 258.467 56.881 258.494 56.891 258.441C57.718 254.438 58.631 250.396 59.65 246.366C59.686 246.367 59.725 246.36 59.765 246.343C61.398 245.657 63.041 245.227 64.804 245.064C64.919 245.054 64.91 244.854 64.793 244.86C63.092 244.942 61.426 245.24 59.809 245.769C60.739 242.135 61.75 238.511 62.887 234.94C66.594 234.032 70.463 233.542 74.275 233.451C74.314 233.45 74.321 233.391 74.28 233.389C70.437 233.21 66.825 233.541 63.082 234.34C63.28 233.727 63.486 233.118 63.691 232.507C66.194 231.937 68.708 231.457 71.269 231.223C71.315 231.219 71.311 231.14 71.265 231.141C68.757 231.209 66.285 231.472 63.845 232.043C64.89 228.952 66.019 225.904 67.271 222.935C68.307 220.479 69.539 218.147 70.896 215.896C72.949 215.431 74.939 214.989 77.043 214.8C77.101 214.795 77.095 214.702 77.038 214.698C75.128 214.574 73.139 214.717 71.291 215.266C72.301 213.635 73.362 212.037 74.498 210.489C78.804 209.535 83.169 208.65 87.574 209.477C87.65 209.491 87.678 209.363 87.603 209.344C83.41 208.241 79.248 208.878 75.076 209.703C75.531 209.097 75.997 208.499 76.467 207.904C79.11 207.087 81.739 206.691 84.512 206.64C84.569 206.639 84.578 206.557 84.519 206.551C81.988 206.309 79.464 206.554 77.018 207.217C80.578 202.794 84.51 198.64 88.397 194.532C88.579 194.344 88.439 194.233 88.247 194.421Z" fill="white"/>
<path d="M88.034 211.91C86.77 211.775 85.485 211.634 84.215 211.777C84.061 211.794 84.074 212.045 84.229 212.049C85.493 212.086 86.757 211.992 88.021 212.06C88.118 212.066 88.13 211.92 88.034 211.91Z" fill="white"/>
<path d="M74.212 236.798C72.194 236.773 70.179 237.316 68.294 237.986C68.247 238.003 68.273 238.082 68.322 238.07C70.276 237.605 72.253 237.416 74.227 237.09C74.389 237.064 74.381 236.8 74.212 236.798Z" fill="white"/>
<path d="M70.07 228.199C69.251 228.156 68.365 228.3 67.558 228.426C67.475 228.439 67.48 228.574 67.566 228.576C68.382 228.59 69.28 228.612 70.084 228.458C70.226 228.43 70.22 228.207 70.07 228.199Z" fill="white"/>
<path d="M0.612619 215.894C6.79162 218.042 12.9206 220.804 18.4586 224.299C24.3616 228.024 29.2466 232.772 33.3256 238.423C41.682 250.002 48.236 263.259 52.389 276.915C54.717 284.571 56.213 292.399 56.714 300.388C56.732 300.678 56.301 300.718 56.264 300.429C54.497 286.625 50.568 273.147 44.635 260.559C38.814 248.209 31.4596 235.065 20.2166 226.888C14.0946 222.436 7.21561 219.522 0.356614 216.439C-0.00238577 216.278 0.253619 215.77 0.612619 215.894Z" fill="#EBEBEB"/>
<path d="M47.908 268.106C47.908 268.106 41.632 262.18 33.6981 257.772C25.7631 253.364 19.3121 250.463 17.3441 246.611C15.3761 242.759 21.5031 237.758 21.5031 237.758C21.5031 237.758 13.3991 241.731 10.0381 238.814C6.67711 235.897 -0.38089 215.457 -0.38089 215.457C-0.38089 215.457 18.3271 222.113 30.0081 235.597C41.69 249.082 47.908 268.106 47.908 268.106Z" fill="#EBEBEB"/>
<path d="M46.934 263.89C37.577 246.327 25.0915 230.439 7.9835 219.952C7.9755 219.947 7.9685 219.959 7.9755 219.963C12.4795 222.833 16.6295 226.143 20.4975 229.762C17.0345 229.666 13.5095 230.218 10.4395 231.885C10.3715 231.922 10.4205 232.014 10.4905 231.99C13.9125 230.832 17.1995 230.072 20.8395 230.241C20.8895 230.243 20.9215 230.217 20.9565 230.197C21.5635 230.773 22.1625 231.358 22.7555 231.948C20.9555 232.025 19.1345 232.28 17.3805 232.661C17.3335 232.671 17.3465 232.744 17.3945 232.735C19.2925 232.368 21.1455 232.24 23.0715 232.267C26.2065 235.417 29.1275 238.787 31.8955 242.286C30.6455 242.104 29.3355 242.21 28.1375 242.559C28.0485 242.585 28.0715 242.713 28.1645 242.701C29.5275 242.529 30.8235 242.551 32.1765 242.646C32.6885 243.298 33.2065 243.946 33.7085 244.606C29.8615 244.374 26.0925 244.744 22.3545 245.71C22.2995 245.724 22.3145 245.809 22.3715 245.798C26.2275 245.041 30.1155 244.799 34.034 245.04C34.511 245.673 34.963 246.324 35.431 246.964C33.1355 246.894 30.9095 247.181 28.6715 247.738C28.5865 247.759 28.6105 247.893 28.6975 247.873C30.9995 247.349 33.3405 247.216 35.694 247.328C37.707 250.101 39.635 252.936 41.488 255.805C40.507 255.603 39.477 255.713 38.521 255.983C38.47 255.998 38.484 256.07 38.537 256.064C39.638 255.935 40.666 256.077 41.747 256.216C43.413 258.81 45.024 261.43 46.567 264.065C46.699 264.289 47.058 264.123 46.934 263.89Z" fill="white"/>
<path d="M32.3788 249.322C30.5498 249.165 28.6908 249.452 26.9438 249.987C26.8938 250.002 26.9058 250.078 26.9598 250.068C28.7588 249.737 30.5418 249.612 32.3648 249.514C32.4838 249.508 32.5068 249.334 32.3788 249.322Z" fill="white"/>
<path d="M16.0607 227.918C15.2337 227.824 14.3707 227.932 13.5537 228.064C13.4567 228.08 13.4867 228.223 13.5827 228.213C14.4067 228.125 15.2197 228.156 16.0447 228.131C16.1787 228.127 16.2007 227.934 16.0607 227.918Z" fill="white"/>
<path d="M72.038 326.182H29.8086L35.83 282.075L37.369 270.766H64.478L66.016 282.075L72.038 326.182Z" fill="#DBDBDB"/>
<path d="M66.016 282.075H35.83L37.369 270.766H64.478L66.016 282.075Z" fill="#C7C7C7"/>
<path d="M68.354 266.842H33.4922V276.42H68.354V266.842Z" fill="#DBDBDB"/>
<path d="M2.96478 326.181L78.974 325.938L154.983 325.85L307.001 325.682L459.019 325.849L535.028 325.937L611.037 326.181L535.028 326.426L459.019 326.514L307.001 326.68L154.983 326.513L78.974 326.424L2.96478 326.181Z" fill="#263238"/>
<path d="M309 400.713C467.363 400.713 595.742 386.646 595.742 369.293C595.742 351.94 467.363 337.873 309 337.873C150.637 337.873 22.2578 351.94 22.2578 369.293C22.2578 386.646 150.637 400.713 309 400.713Z" fill="#EBEBEB"/>
<path d="M242.249 364.088C239.918 364.877 173.104 365.112 170.55 363.511C169.578 362.909 168.977 353.18 168.583 341.404C168.498 338.861 168.425 336.235 168.367 333.567L162.949 297.931L207.614 297.645L211.83 333.289L211.659 341.129C211.659 341.129 237.28 352.481 239.892 354.538C242.492 356.594 244.581 363.299 242.249 364.088Z" fill="#EB9481"/>
<path d="M242.249 364.087C239.918 364.876 173.104 365.111 170.55 363.51C169.37 362.771 168.726 348.563 168.367 333.566L211.83 333.287L211.659 341.127C211.659 341.127 237.28 352.479 239.892 354.536C242.492 356.593 244.581 363.298 242.249 364.087Z" fill="white"/>
<path d="M242.25 364.089C239.919 364.878 173.105 365.113 170.551 363.512C169.579 362.91 168.978 353.181 168.584 341.405L211.66 341.129C211.66 341.129 237.281 352.481 239.893 354.538C242.493 356.595 244.582 363.3 242.25 364.089Z" fill="#A6A6A6"/>
<path d="M241.282 361.42C230.081 361.184 184.882 361.291 173.792 361.909C173.702 361.914 173.702 361.975 173.792 361.979C184.889 362.455 230.086 361.983 241.283 361.603C241.519 361.596 241.518 361.425 241.282 361.42Z" fill="#263238"/>
<path d="M235.588 352.148C232.932 352.049 230.34 353.32 228.897 354.907C227.511 356.432 226.328 358.573 226.415 360.896C226.418 360.962 226.541 360.964 226.55 360.895C227.174 356.51 231.147 352.646 235.588 352.289C235.679 352.281 235.679 352.152 235.588 352.148Z" fill="#263238"/>
<path d="M216.009 342.228C211.526 342.182 206.334 343.782 203.561 347.458C203.454 347.6 203.657 347.751 203.79 347.682C207.835 345.579 211.682 344.009 216.087 342.779C216.399 342.693 216.33 342.231 216.009 342.228Z" fill="#263238"/>
<path d="M219.474 343.565C214.991 343.518 209.799 345.119 207.026 348.795C206.919 348.938 207.123 349.088 207.255 349.019C211.3 346.916 215.147 345.346 219.552 344.117C219.863 344.03 219.795 343.568 219.474 343.565Z" fill="#263238"/>
<path d="M222.939 344.901C218.456 344.855 213.264 346.455 210.491 350.131C210.383 350.273 210.588 350.424 210.72 350.355C214.765 348.252 218.612 346.682 223.018 345.453C223.329 345.366 223.26 344.904 222.939 344.901Z" fill="#263238"/>
<path d="M226.405 346.239C221.922 346.192 216.731 347.793 213.958 351.469C213.85 351.611 214.054 351.762 214.187 351.693C218.232 349.59 222.079 348.02 226.484 346.791C226.795 346.703 226.726 346.242 226.405 346.239Z" fill="#263238"/>
<path d="M176.608 351.26C171.579 351.292 171.62 359.109 176.658 359.076C181.687 359.044 181.646 351.228 176.608 351.26Z" fill="#263238"/>
<path d="M220.811 330.248C218.535 328.374 215.683 330.223 214.291 332.182C212.036 335.354 210.495 339.795 210.258 343.66C210.253 343.755 210.325 343.793 210.398 343.788C210.495 344.109 210.875 344.377 211.205 344.147C214.389 341.928 218.068 339.951 220.476 336.821C221.882 334.992 222.963 332.02 220.811 330.248ZM215.344 339.795C213.805 340.924 212.219 341.971 210.722 343.157C211.515 340.92 212.207 338.661 213.225 336.506C213.711 335.478 214.229 334.43 214.852 333.476C215.821 331.992 220.208 328.23 220.671 333.105C220.926 335.794 217.179 338.448 215.344 339.795Z" fill="#263238"/>
<path d="M199.126 345.361C203.031 345.947 207.054 344.821 210.886 344.213C211.284 344.15 211.372 343.693 211.219 343.394C211.276 343.347 211.302 343.269 211.232 343.205C208.382 340.584 204.192 338.452 200.368 337.73C198.007 337.284 194.67 337.929 194.328 340.857C194.006 343.627 196.846 345.019 199.126 345.361ZM196.41 342.819C193.363 338.984 199.133 338.654 200.86 339.052C201.97 339.308 203.07 339.703 204.133 340.107C206.361 340.955 208.426 342.103 210.548 343.165C208.647 343.348 206.778 343.693 204.886 343.946C202.631 344.249 198.09 344.934 196.41 342.819Z" fill="#263238"/>
<path d="M97.316 133.203C97.316 133.203 149.186 221.443 150.575 227.638C152.709 237.158 164.022 331.173 164.022 331.173L217.993 330.201C217.993 330.201 208.691 247.31 199.881 220.001C193.535 200.33 147.759 135.092 147.759 135.092L97.316 133.203Z" fill="#37474F"/>
<path d="M213.084 321.926C205.333 321.87 177.867 321.56 167.55 322.523C167.471 322.53 167.474 322.661 167.552 322.672C171.103 323.182 205.339 322.388 213.087 322.139C213.233 322.135 213.23 321.927 213.084 321.926Z" fill="#263238"/>
<path d="M106.17 141.3C109.569 146.631 113.155 151.851 116.63 157.136C120.107 162.423 123.571 167.718 126.99 173.042C133.823 183.683 140.478 194.435 147.011 205.254C150.075 210.328 152.993 215.449 155.097 220.984C157.181 226.466 158.6 232.17 159.65 237.92C160.708 243.713 161.404 249.561 162.062 255.407C162.762 261.632 163.452 267.858 164.147 274.084C165.569 286.823 166.991 299.562 168.413 312.3C168.587 313.863 168.758 315.425 168.915 316.99C168.938 317.219 168.528 317.265 168.499 317.035C166.911 304.377 165.592 291.681 164.149 279.006C163.431 272.696 162.713 266.386 161.995 260.076C161.327 254.209 160.692 248.335 159.782 242.498C158.887 236.765 157.726 231.055 155.981 225.506C154.158 219.708 151.576 214.265 148.519 208.993C142.264 198.206 135.646 187.603 129.025 177.028C122.347 166.362 115.613 155.725 108.629 145.246C107.767 143.952 106.897 142.666 106.003 141.392C105.933 141.292 106.104 141.197 106.17 141.3Z" fill="#263238"/>
<path d="M114.321 369.292C111.86 369.141 48.325 343.398 46.554 340.959C46.495 340.877 46.46 340.717 46.457 340.489C46.469 338.304 50.869 330.657 54.546 320.623C54.776 319.981 56.416 317.004 58.692 312.988C64.948 301.959 76.018 283.066 76.018 283.066L117.547 299.566L97.669 329.322L94.575 336.523C94.575 336.523 114.066 356.666 115.712 359.548C117.348 362.431 116.773 369.431 114.321 369.292Z" fill="#EB9481"/>
<path d="M114.321 369.292C111.86 369.141 48.325 343.398 46.554 340.959C46.495 340.877 46.46 340.717 46.457 340.489C46.469 338.304 50.869 330.657 54.546 320.623C54.776 319.981 56.416 317.004 58.692 312.988L97.67 329.322L94.576 336.523C94.576 336.523 114.067 356.666 115.713 359.548C117.348 362.431 116.773 369.431 114.321 369.292Z" fill="white"/>
<path d="M114.318 369.287C111.861 369.144 48.324 343.398 46.557 340.956C45.882 340.033 48.723 331.356 54.543 320.625L94.577 336.529C94.577 336.529 114.068 356.663 115.718 359.55C117.354 362.431 116.775 369.43 114.318 369.287Z" fill="#A6A6A6"/>
<path d="M114.422 366.449C104.128 362.029 62.189 345.172 51.677 341.584C51.592 341.555 51.569 341.612 51.651 341.649C61.759 346.253 103.833 362.77 114.354 366.619C114.576 366.701 114.639 366.542 114.422 366.449Z" fill="#263238"/>
<path d="M112.621 355.719C110.196 354.631 107.317 354.836 105.384 355.766C103.527 356.659 101.627 358.201 100.837 360.386C100.814 360.449 100.928 360.496 100.963 360.436C103.187 356.605 108.319 354.514 112.57 355.849C112.655 355.876 112.705 355.756 112.621 355.719Z" fill="#263238"/>
<path d="M98.194 339.178C94.056 337.453 88.643 336.989 84.693 339.356C84.54 339.448 84.673 339.664 84.822 339.65C89.361 339.218 93.515 339.206 98.06 339.719C98.381 339.755 98.49 339.302 98.194 339.178Z" fill="#263238"/>
<path d="M100.905 341.717C96.767 339.992 91.354 339.528 87.404 341.895C87.251 341.987 87.384 342.203 87.533 342.188C92.071 341.756 96.226 341.744 100.771 342.257C101.092 342.294 101.201 341.841 100.905 341.717Z" fill="#263238"/>
<path d="M103.616 344.256C99.478 342.531 94.065 342.067 90.115 344.434C89.962 344.526 90.095 344.742 90.244 344.728C94.782 344.296 98.937 344.283 103.482 344.797C103.802 344.833 103.912 344.379 103.616 344.256Z" fill="#263238"/>
<path d="M106.326 346.795C102.188 345.07 96.775 344.606 92.826 346.973C92.673 347.065 92.805 347.281 92.955 347.267C97.494 346.835 101.648 346.823 106.193 347.336C106.513 347.372 106.623 346.919 106.326 346.795Z" fill="#263238"/>
<path d="M58.281 332.77C53.607 330.913 50.713 338.174 55.395 340.034C60.07 341.891 62.964 334.63 58.281 332.77Z" fill="#263238"/>
<path d="M107.14 329.875C105.733 327.285 102.396 327.928 100.371 329.222C97.091 331.316 93.996 334.855 92.327 338.348C92.286 338.434 92.339 338.496 92.409 338.519C92.378 338.853 92.63 339.244 93.023 339.155C96.807 338.292 100.959 337.84 104.365 335.842C106.353 334.676 108.47 332.326 107.14 329.875ZM98.491 336.675C96.64 337.144 94.778 337.52 92.945 338.058C94.519 336.282 96.008 334.447 97.76 332.831C98.596 332.06 99.47 331.284 100.405 330.633C101.86 329.62 107.338 327.779 105.938 332.472C105.166 335.06 100.697 336.115 98.491 336.675Z" fill="#263238"/>
<path d="M81.368 335.748C84.768 337.756 88.919 338.222 92.7 339.096C93.092 339.187 93.345 338.797 93.316 338.462C93.386 338.44 93.44 338.377 93.399 338.291C91.74 334.792 88.656 331.245 85.383 329.14C83.361 327.841 80.026 327.187 78.612 329.773C77.273 332.22 79.383 334.576 81.368 335.748ZM79.805 332.373C78.42 327.675 83.892 329.534 85.343 330.551C86.276 331.204 87.147 331.983 87.981 332.757C89.728 334.378 91.212 336.218 92.781 337.998C90.95 337.455 89.089 337.073 87.239 336.598C85.035 336.032 80.568 334.963 79.805 332.373Z" fill="#263238"/>
<path d="M100.874 327.657L54.389 308.886C54.389 308.886 112.025 224.141 112.452 217.834C112.829 212.246 87.514 163.625 86.516 149.455C85.439 134.163 92.803 122.327 100.894 114.982L148.849 135.367C148.849 135.367 143.788 143.464 135.815 147.971C135.815 147.971 160.407 204.172 159.012 221.452C157.61 238.826 100.874 327.657 100.874 327.657Z" fill="#37474F"/>
<path d="M102.939 318.818C96.217 315.928 98.187 316.662 91.432 313.847C88.127 312.469 66.398 303.437 63.09 302.693C63.017 302.677 62.97 302.792 63.034 302.831C65.926 304.602 87.808 313.254 91.139 314.568C97.946 317.253 96.021 316.408 102.858 319.016C102.987 319.064 103.065 318.872 102.939 318.818Z" fill="#263238"/>
<path d="M143.711 146.944C138.715 148.018 133.814 149.784 129.106 151.681C128.921 151.756 129.008 152.03 129.206 151.972C134.108 150.541 139.094 149.204 143.906 147.513C144.284 147.38 144.094 146.861 143.711 146.944Z" fill="#263238"/>
<path d="M138.021 144.971C137.548 145.795 137.147 146.663 136.789 147.54C136.512 148.221 136.156 148.951 136.16 149.694C136.161 149.838 136.355 149.873 136.444 149.785C137.001 149.237 137.297 148.437 137.649 147.754C138.057 146.963 138.483 146.179 138.868 145.376C139.123 144.844 138.312 144.463 138.021 144.971Z" fill="#263238"/>
<path d="M138.604 140.463C138.898 139.725 139.194 138.988 139.504 138.257C139.825 137.5 140.198 136.754 140.46 135.975C140.501 135.852 140.696 135.935 140.647 136.059C140.354 136.798 140.163 137.586 139.928 138.346C139.692 139.109 139.443 139.867 139.191 140.625C138.721 142.036 138.146 143.436 137.54 144.798C138.324 144.788 139.131 144.753 139.844 144.398C140.618 144.012 141.087 143.19 141.468 142.447C141.891 141.622 142.28 140.778 142.715 139.959C143.196 139.053 143.728 138.157 144.045 137.176C144.085 137.052 144.276 137.135 144.232 137.259C143.51 139.284 142.8 141.306 141.677 143.172C141.236 143.905 140.878 144.668 140.065 144.955C139.192 145.263 138.237 145.203 137.328 145.137C137.216 145.168 137.071 145.096 137.11 144.96C137.539 143.451 138.022 141.921 138.604 140.463Z" fill="#263238"/>
<path d="M136.564 149.801C138.268 153.414 139.767 157.014 141.36 160.614C142.917 164.132 144.375 167.691 145.79 171.267C148.65 178.494 151.212 185.852 153.459 193.293C154.571 196.975 155.595 200.683 156.521 204.416C157.449 208.159 158.356 211.94 158.741 215.784C159.127 219.64 158.852 223.453 157.778 227.182C156.688 230.965 155.252 234.269 153.546 237.808C152.504 239.971 152.145 239.679 152.65 238.587C154.081 235.49 157.829 226.102 157.557 218.209C157.426 214.401 156.644 210.651 155.784 206.951C154.906 203.174 153.915 199.424 152.834 195.7C150.704 188.363 148.174 181.171 145.571 173.991C144.113 169.968 142.548 165.986 141.068 161.972C139.577 157.928 138.04 154.289 136.386 149.873C136.342 149.757 136.511 149.689 136.564 149.801Z" fill="#263238"/>
<path d="M101.269 137.868C102.102 137.56 103.257 138.07 104.106 138.212C105.195 138.395 106.296 138.506 107.4 138.544C108.488 138.581 109.585 138.537 110.668 138.431C111.751 138.326 112.856 138.192 113.797 137.604C115.383 136.614 116.711 134.87 117.786 133.368C118.967 131.717 120.193 129.819 120.897 127.907C120.94 127.79 121.109 127.87 121.072 127.985C120.722 129.1 120.462 130.224 120.017 131.313C119.598 132.338 119.057 133.318 118.483 134.262C117.411 136.026 116.181 137.909 114.343 138.958C112.414 140.059 109.929 139.993 107.778 139.869C106.534 139.797 105.295 139.633 104.075 139.376C103.195 139.19 101.714 139.049 101.153 138.276C101.052 138.14 101.105 137.929 101.269 137.868Z" fill="#263238"/>
<path d="M67.659 300.028C75.3 288.465 82.799 276.807 90.163 265.065C97.546 253.292 104.793 241.433 111.939 229.515C113.648 226.665 115.623 223.816 116.724 220.659C117.921 217.227 117.241 213.902 116.157 210.544C114.169 204.385 111.693 198.392 109.02 192.501C106.339 186.593 103.453 180.782 100.613 174.95C97.797 169.165 94.8 163.361 92.664 157.282C90.624 151.475 89.847 145.453 91.413 139.43C92.967 133.454 96.328 128.088 99.838 123.08C100.764 121.759 101.707 120.45 102.636 119.131C102.707 119.031 102.859 119.152 102.785 119.252C98.917 124.473 95.145 129.999 92.877 136.129C91.756 139.158 91.03 142.347 90.959 145.583C90.886 148.866 91.503 152.123 92.47 155.25C94.351 161.33 97.32 167.087 100.086 172.799C102.914 178.638 105.818 184.442 108.545 190.33C111.289 196.254 113.855 202.268 115.964 208.45C116.903 211.202 117.95 214.082 117.888 217.031C117.82 220.261 116.278 223.169 114.682 225.892C107.73 237.748 100.513 249.455 93.207 261.095C85.873 272.78 78.394 284.373 70.799 295.889C69.841 297.341 68.881 298.792 67.92 300.242C67.801 300.419 67.541 300.207 67.659 300.028Z" fill="#263238"/>
<path d="M151.511 81.47C155.839 90.971 177.704 104.063 187.945 105.47C195.313 106.482 217.684 106.83 225.356 105.659C234.341 104.287 227.476 80.029 222.164 80.65C207.565 82.357 195.168 84.257 191.271 84.257C186.513 84.257 160.759 75.991 157.656 74.828C150.061 71.981 149.056 76.081 151.511 81.47Z" fill="#EB9481"/>
<path d="M151.646 83.985C157.125 92.094 175.342 105.35 175.342 105.35L177.87 99.749L186.236 81.234C186.236 81.234 169.507 75.955 158.498 73.603C157.011 73.284 155.7 73.093 154.559 73.042C147.531 72.663 146.921 77.009 151.646 83.985Z" fill="#6B308A"/>
<path d="M151.646 83.985C157.125 92.094 175.342 105.35 175.342 105.35L177.87 99.749C171.077 91.864 160.591 79.913 154.559 73.042C147.531 72.663 146.921 77.009 151.646 83.985Z" fill="#263238"/>
<path d="M172.059 101.607C173.447 98.204 179.632 84.474 181.167 81.593C181.274 81.393 181.425 81.409 181.34 81.63C177.425 91.921 173.725 98.382 172.194 101.653C172.156 101.735 172.024 101.693 172.059 101.607Z" fill="#263238"/>
<path d="M219.484 80.915C228.37 79.749 239.361 77.756 248.668 81.707C250.494 82.482 251.155 83.843 251.155 83.843C255.358 85.54 255.819 88.034 255.819 88.034C259.25 90.813 259.371 93.429 259.371 93.429C259.371 93.429 264.284 95.475 263.54 98.65C262.717 102.213 255.978 98.642 251.072 98.945C239.83 99.638 224.045 103.768 220.823 104.29L219.484 80.915Z" fill="#EB9481"/>
<path d="M238.781 91.393C242.093 91.255 245.343 91.033 248.657 91.344C252.293 91.685 255.734 92.624 259.262 93.492C259.372 93.519 259.421 93.369 259.317 93.325C253.18 90.743 245.312 90.065 238.773 91.243C238.614 91.271 238.614 91.4 238.781 91.393Z" fill="#263238"/>
<path d="M237.376 84.668C240.607 84.712 246.284 84.827 255.785 88.137C255.816 88.148 255.844 88.099 255.812 88.082C249.929 85.113 243.897 84.057 237.379 84.514C237.176 84.528 237.162 84.665 237.376 84.668Z" fill="#263238"/>
<path d="M236.69 81.041C242.18 81.326 245.606 82.2 251.128 83.86C251.159 83.869 251.184 83.818 251.151 83.804C245.073 81.259 242.579 81.024 236.673 80.852C236.471 80.845 236.476 81.03 236.69 81.041Z" fill="#263238"/>
<path d="M237.58 100.639C236.152 101.309 236.494 102.063 239.226 102.696C241.989 103.342 253.309 103.515 252.91 107.469C252.516 111.438 236.5 110.93 232.031 109.528C227.558 108.136 220.824 104.292 220.824 104.292C223.96 103.762 231.443 101.755 237.58 100.639Z" fill="#EB9481"/>
<path d="M163.402 96.616C163.333 98.324 163.165 100.063 162.925 101.787C162.948 101.725 162.975 101.664 162.998 101.602C163.331 100.702 163.655 99.779 164.059 98.909C164.08 98.863 164.161 98.876 164.151 98.932C163.975 99.876 163.644 100.824 163.284 101.715C163.112 102.14 162.937 102.565 162.753 102.986C162.629 103.754 162.491 104.517 162.336 105.268C162.041 106.698 160.69 112.781 160.383 113.809C160.318 114.025 160.061 113.976 160.077 113.734C160.151 112.614 161.284 106.279 161.513 104.845C161.953 102.091 162.558 99.281 163.295 96.59C163.312 96.526 163.404 96.556 163.402 96.616Z" fill="#263238"/>
<path d="M152.977 142.076C150.31 143.451 146.87 145.581 131.371 142.53C130.402 142.333 129.428 142.095 128.452 141.805C113.917 137.439 96.485 120.347 95.502 119.142C95.502 119.142 118.585 81.711 148.117 69.945C151.767 68.491 157.81 71.295 161.155 74.785C162.35 76.032 164.942 85.216 163.947 92.659C162.942 100.091 155.663 140.714 152.977 142.076Z" fill="#884EA7"/>
<path d="M150.916 92.318C151.001 93.122 150.937 93.905 150.839 94.683C150.722 95.459 150.569 96.23 150.267 96.98C150.181 96.176 150.245 95.393 150.344 94.615C150.462 93.839 150.615 93.068 150.916 92.318Z" fill="white"/>
<path d="M140.847 117.809C140.932 118.613 140.868 119.396 140.77 120.175C140.653 120.951 140.5 121.722 140.198 122.472C140.112 121.668 140.176 120.885 140.275 120.106C140.394 119.33 140.546 118.559 140.847 117.809Z" fill="white"/>
<path d="M123.734 98.543C123.819 99.347 123.755 100.13 123.657 100.908C123.54 101.684 123.387 102.455 123.085 103.205C122.999 102.401 123.063 101.618 123.162 100.839C123.281 100.064 123.434 99.293 123.734 98.543Z" fill="white"/>
<path d="M157.51 116.516C157.595 117.32 157.531 118.103 157.433 118.881C157.316 119.657 157.163 120.428 156.861 121.178C156.775 120.374 156.839 119.591 156.938 118.812C157.056 118.037 157.209 117.266 157.51 116.516Z" fill="white"/>
<path d="M135.535 95.237C136.339 95.152 137.122 95.216 137.901 95.314C138.677 95.431 139.448 95.584 140.198 95.886C139.394 95.972 138.611 95.908 137.832 95.809C137.056 95.691 136.286 95.538 135.535 95.237Z" fill="white"/>
<path d="M116.115 113.655C116.919 113.57 117.702 113.634 118.48 113.732C119.256 113.849 120.027 114.002 120.777 114.304C119.973 114.39 119.19 114.326 118.412 114.227C117.635 114.109 116.865 113.956 116.115 113.655Z" fill="white"/>
<path d="M138.961 133.585C139.765 133.5 140.548 133.564 141.326 133.662C142.102 133.779 142.873 133.932 143.623 134.234C142.819 134.32 142.036 134.256 141.258 134.157C140.482 134.039 139.711 133.886 138.961 133.585Z" fill="white"/>
<path d="M110.127 126.344C110.931 126.259 111.714 126.323 112.493 126.421C113.269 126.538 114.04 126.691 114.79 126.993C113.986 127.079 113.203 127.015 112.424 126.916C111.648 126.797 110.877 126.644 110.127 126.344Z" fill="white"/>
<path d="M150.768 74.403C151.572 74.318 152.355 74.382 153.134 74.48C153.91 74.597 154.68 74.75 155.43 75.052C154.626 75.138 153.843 75.074 153.065 74.975C152.289 74.856 151.518 74.703 150.768 74.403Z" fill="white"/>
<path d="M145.124 80.781C144.615 81.409 144.017 81.918 143.397 82.399C142.766 82.865 142.113 83.302 141.369 83.618C141.877 82.989 142.476 82.48 143.096 82C143.727 81.535 144.381 81.098 145.124 80.781Z" fill="white"/>
<path d="M114.327 98.908C113.818 99.536 113.22 100.045 112.6 100.526C111.969 100.992 111.316 101.429 110.572 101.746C111.08 101.117 111.679 100.608 112.299 100.128C112.931 99.662 113.584 99.226 114.327 98.908Z" fill="white"/>
<path d="M152.775 107.096C152.266 107.724 151.668 108.233 151.048 108.714C150.417 109.18 149.764 109.617 149.02 109.933C149.528 109.304 150.127 108.795 150.747 108.315C151.379 107.851 152.032 107.414 152.775 107.096Z" fill="white"/>
<path d="M127.876 122.773C127.367 123.401 126.769 123.91 126.149 124.391C125.518 124.857 124.865 125.294 124.121 125.61C124.629 124.981 125.228 124.472 125.848 123.992C126.479 123.528 127.132 123.091 127.876 122.773Z" fill="white"/>
<path d="M162.315 85.67C161.806 86.298 161.208 86.807 160.588 87.288C159.957 87.754 159.304 88.191 158.559 88.507C159.067 87.878 159.666 87.369 160.286 86.889C160.919 86.424 161.572 85.987 162.315 85.67Z" fill="white"/>
<path d="M161.794 103.843C161.166 103.334 160.657 102.736 160.176 102.116C159.71 101.485 159.273 100.832 158.957 100.088C159.586 100.596 160.095 101.195 160.575 101.815C161.039 102.447 161.476 103.1 161.794 103.843Z" fill="white"/>
<path d="M106.3 116.359C105.672 115.85 105.163 115.252 104.682 114.632C104.216 114.001 103.779 113.348 103.463 112.604C104.092 113.112 104.601 113.711 105.081 114.331C105.546 114.962 105.983 115.615 106.3 116.359Z" fill="white"/>
<path d="M155.049 131.255C154.421 130.746 153.912 130.148 153.431 129.528C152.965 128.897 152.528 128.244 152.211 127.5C152.84 128.008 153.349 128.607 153.829 129.227C154.295 129.858 154.731 130.512 155.049 131.255Z" fill="white"/>
<path d="M130.618 88.804C129.99 88.295 129.481 87.697 129 87.077C128.534 86.446 128.097 85.793 127.781 85.049C128.41 85.557 128.919 86.156 129.399 86.776C129.864 87.407 130.301 88.06 130.618 88.804Z" fill="white"/>
<path d="M131.05 139.734C130.422 139.225 129.913 138.627 129.432 138.007C128.966 137.376 128.529 136.723 128.213 135.979C128.842 136.487 129.351 137.086 129.831 137.706C130.295 138.337 130.732 138.99 131.05 139.734Z" fill="white"/>
<path d="M135.202 109.691C134.574 109.182 134.065 108.584 133.584 107.964C133.118 107.333 132.681 106.68 132.365 105.936C132.994 106.444 133.503 107.043 133.983 107.663C134.448 108.294 134.885 108.947 135.202 109.691Z" fill="white"/>
<path d="M155.725 84.749C151.962 84.049 148.415 76.26 147.969 71.02C147.94 70.661 149.731 67.808 151.742 64.238C152.954 62.067 154.253 59.621 155.277 57.304C155.485 56.827 156.718 58.417 156.718 58.417L159.397 60.466L168.252 67.256C168.252 67.256 164.677 71.483 162.917 75.534C162.774 75.874 162.668 76.203 162.597 76.529C162.583 76.575 162.572 76.633 162.549 76.696C162.044 78.633 159.362 85.423 155.725 84.749Z" fill="#EB9481"/>
<path d="M162.596 76.53C162.582 76.576 162.571 76.634 162.548 76.697C162.064 76.561 161.557 76.368 161.019 76.116C151.328 71.574 155.603 58.59 155.603 58.59L159.397 60.467L168.252 67.257C168.252 67.257 164.677 71.484 162.917 75.535C162.773 75.875 162.668 76.204 162.596 76.53Z" fill="#263238"/>
<path d="M178.418 39.582C178.418 39.582 182.845 42.394 182.874 47.392C182.903 52.391 180.912 57.281 180.45 57.456C179.988 57.631 178.418 39.582 178.418 39.582Z" fill="#263238"/>
<path d="M156.442 42.1761C153.78 47.431 153.914 63.977 157.239 68.241C162.058 74.422 171.342 76.552 176.945 70.441C182.377 64.517 181.82 42.9571 177.977 38.9391C172.317 33.0211 160.375 34.4141 156.442 42.1761Z" fill="#EB9481"/>
<path d="M170.56 55.433C170.55 55.39 170.473 55.488 170.476 55.535C170.538 56.662 170.419 57.963 169.407 58.361C169.376 58.373 169.38 58.43 169.418 58.424C170.658 58.219 170.799 56.49 170.56 55.433Z" fill="#263238"/>
<path d="M169.525 54.277C167.708 54.181 167.651 57.822 169.334 57.911C170.991 57.998 171.048 54.357 169.525 54.277Z" fill="#263238"/>
<path d="M176.731 55.392C176.74 55.349 176.818 55.447 176.816 55.493C176.762 56.62 176.891 57.92 177.905 58.311C177.937 58.323 177.932 58.38 177.895 58.374C176.653 58.178 176.499 56.451 176.731 55.392Z" fill="#263238"/>
<path d="M177.758 54.229C179.574 54.12 179.658 57.76 177.976 57.861C176.32 57.961 176.235 54.32 177.758 54.229Z" fill="#263238"/>
<path d="M168.386 51.507C168.884 51.39 169.324 51.199 169.804 51.033C170.346 50.845 170.797 50.751 171.158 50.274C171.351 50.018 171.28 49.552 171.049 49.34C170.51 48.848 169.79 48.913 169.128 49.113C168.41 49.33 167.912 49.68 167.493 50.3C167.085 50.901 167.729 51.661 168.386 51.507Z" fill="#263238"/>
<path d="M179.018 53.121C178.515 53.031 178.065 52.864 177.577 52.723C177.026 52.564 176.57 52.494 176.185 52.036C175.978 51.79 176.025 51.321 176.244 51.098C176.755 50.578 177.479 50.605 178.15 50.769C178.879 50.947 179.395 51.271 179.846 51.868C180.284 52.446 179.682 53.24 179.018 53.121Z" fill="#263238"/>
<path d="M167.994 66.117C168.26 66.385 168.524 66.753 168.932 66.794C169.324 66.833 169.787 66.663 170.149 66.529C170.185 66.516 170.22 66.554 170.197 66.588C169.897 67.016 169.277 67.277 168.756 67.178C168.247 67.081 168.002 66.636 167.885 66.167C167.869 66.101 167.955 66.078 167.994 66.117Z" fill="#263238"/>
<path d="M174.543 61.297C174.543 61.297 174.591 62.985 174.506 63.769C174.498 63.842 172.286 63.409 169.902 63.934C169.545 64.013 169.58 63.722 169.992 63.532C170.817 63.151 171.865 62.794 173.905 63.013C173.984 62.802 173.783 60.416 173.908 60.42C174.341 60.43 175.154 60.814 175.645 61.018C175.647 57.499 175.085 54.009 175.14 50.505C175.144 50.38 175.326 50.362 175.35 50.477C176.198 54.094 176.284 58.143 176.376 61.777C176.393 62.23 174.843 61.465 174.543 61.297Z" fill="#263238"/>
<path d="M172.291 63.169C172.291 63.169 171.505 65.147 170.191 65.678C168.679 66.29 168.161 64.921 169.704 63.712C170.513 63.078 172.291 63.169 172.291 63.169Z" fill="#263238"/>
<path d="M170.717 65.37C170.547 65.5 170.377 65.61 170.187 65.68C168.797 66.24 168.247 65.13 169.367 64.01C170.128 64.07 170.957 64.35 170.717 65.37Z" fill="#FF99BA"/>
<path d="M155.677 56.332C157.505 56.893 159.609 51.394 160.204 49.28C160.728 47.417 161.333 41.5057 161.422 41.1027C161.511 40.6997 169.394 46.333 174.003 44.986C178.612 43.6387 181.692 39.5027 181.756 37.5717C181.819 35.6417 176.097 30.7407 171.145 30.4897C166.193 30.2387 159.49 36.5327 159.49 36.5327C159.49 36.5327 161.767 33.8137 161.69 33.5907C161.613 33.3677 158.413 34.6457 157.825 36.9247C157.825 36.9247 158.458 34.0637 158.216 34.0107C157.974 33.9577 155.488 36.4077 156.049 38.2647C156.049 38.2647 153.173 40.7557 152.907 43.4867C152.64 46.219 153.529 55.673 155.677 56.332Z" fill="#263238"/>
<path d="M177.279 44.023C175.878 44.668 174.474 45.377 172.925 45.581C171.251 45.802 169.514 45.382 167.956 44.784C166.362 44.174 164.914 43.2881 163.598 42.2051C162.445 41.2561 161.423 40.1111 160.192 39.2661C159.884 39.0551 159.527 39.4981 159.717 39.7821C161.586 42.5861 164.893 44.927 168.08 45.938C171.433 47.001 174.585 46.253 177.297 44.06C177.313 44.046 177.302 44.012 177.279 44.023Z" fill="#263238"/>
<path d="M157.59 55.843C157.59 55.843 154.752 50.081 152.192 51.015C149.632 51.949 151.208 59.911 153.82 61.369C156.433 62.827 157.829 60.435 157.829 60.435L157.59 55.843Z" fill="#EB9481"/>
<path d="M152.701 53.286C152.657 53.275 152.639 53.336 152.675 53.358C154.497 54.444 155.243 56.403 155.672 58.382C155.205 57.574 154.478 57.059 153.409 57.599C153.353 57.627 153.389 57.714 153.446 57.711C154.268 57.663 154.821 57.889 155.261 58.609C155.572 59.119 155.745 59.73 155.937 60.293C156.001 60.481 156.329 60.436 156.294 60.226C156.291 60.21 156.288 60.194 156.285 60.178C156.715 57.707 155.323 53.944 152.701 53.286Z" fill="#263238"/>
<path d="M138.837 81.559C136.882 92.887 149.113 131.059 156.988 138.189C168.699 148.792 190.352 155.764 198.198 158.032C201.617 159.021 211.078 134.958 207.619 133.373C200.209 129.979 177.189 122.799 175.022 120.955C172.855 119.111 159.627 100.079 153.746 89.103C145.857 74.376 139.826 75.829 138.837 81.559Z" fill="#EB9481"/>
<path d="M201.794 131.256C201.794 131.256 212.005 133.858 218.602 135.874C222.283 136.998 228.421 139.489 230.747 141.552C234.226 144.638 246.807 159.765 243.205 162.895C239.944 165.728 230.786 151.359 230.786 151.359C230.786 151.359 241.309 165.041 236.756 167.73C232.203 170.419 224.014 152.808 224.014 152.808C224.014 152.808 234.511 167.108 229.377 169.139C225.497 170.673 217.182 155.141 217.182 155.141C217.182 155.141 226.119 167.495 222.197 169.245C217.863 171.179 209.288 157.323 209.288 157.323C198.57 160.092 192.334 157.027 188.157 154.318C187.146 153.66 201.794 131.256 201.794 131.256Z" fill="#EB9481"/>
<path d="M227.449 146.392C228.743 147.954 230.064 149.527 231.215 151.199C232.366 152.871 233.46 154.585 234.45 156.357C236.878 160.703 237.72 163.804 237.647 163.618C235.925 159.222 231.897 153.172 230.746 151.499C229.597 149.83 228.533 148.104 227.385 146.433C227.355 146.391 227.418 146.355 227.449 146.392Z" fill="#263238"/>
<path d="M221.336 150.439C223.554 152.197 228.207 158.744 230.002 163.13C230.077 163.314 229.978 163.299 229.869 163.132C228.463 160.965 222.786 152.562 221.284 150.473C221.261 150.44 221.306 150.415 221.336 150.439Z" fill="#263238"/>
<path d="M215.465 152.969C218.033 155.511 220.189 158.981 221.885 162.992C221.962 163.173 221.817 163.145 221.711 162.974C219.64 159.602 218.039 156.942 215.359 153.058C215.317 152.997 215.405 152.91 215.465 152.969Z" fill="#263238"/>
<path d="M149.968 82.393C140.837 69.479 135.381 74.266 137.212 88.283C138.924 101.392 143.519 117.009 143.519 117.009L166.56 105.849C166.56 105.849 155.811 90.658 149.968 82.393Z" fill="#884EA7"/>
<path d="M155.549 87.471C155.875 88.211 156.054 88.976 156.197 89.747C156.322 90.522 156.412 91.302 156.353 92.109C156.026 91.369 155.847 90.604 155.705 89.833C155.581 89.057 155.492 88.277 155.549 87.471Z" fill="white"/>
<path d="M141.916 95.321C142.656 94.995 143.421 94.817 144.192 94.673C144.967 94.548 145.747 94.458 146.554 94.517C145.814 94.844 145.049 95.023 144.278 95.165C143.503 95.289 142.722 95.378 141.916 95.321Z" fill="white"/>
<path d="M142.51 75.24C142.217 75.994 141.803 76.661 141.359 77.308C140.9 77.944 140.411 78.56 139.799 79.088C140.091 78.334 140.506 77.666 140.95 77.02C141.41 76.384 141.899 75.769 142.51 75.24Z" fill="white"/>
<path d="M161.95 101.352C161.657 102.105 161.243 102.773 160.799 103.42C160.34 104.056 159.852 104.672 159.24 105.2C159.532 104.446 159.946 103.778 160.391 103.132C160.851 102.497 161.34 101.881 161.95 101.352Z" fill="white"/>
<path d="M146.01 109.185C145.256 108.892 144.589 108.478 143.942 108.034C143.306 107.575 142.69 107.086 142.162 106.475C142.916 106.767 143.583 107.181 144.23 107.626C144.866 108.085 145.481 108.574 146.01 109.185Z" fill="white"/>
<path d="M153.031 86.28C154.257 87.967 155.528 89.621 156.794 91.278C156.473 90.44 156.195 89.593 155.947 88.728C155.936 88.688 155.993 88.671 156.008 88.709C156.264 89.372 156.548 90.026 156.793 90.693C156.911 91.014 157.031 91.333 157.154 91.652C157.181 91.721 157.208 91.789 157.235 91.857C158.22 93.15 159.201 94.446 160.149 95.765C161.28 97.34 162.372 98.942 163.469 100.541C164.602 102.193 165.677 104.13 166.874 105.736C166.978 105.875 164.835 106.741 164.635 106.852C164.43 106.966 164.291 106.767 164.509 106.701C164.71 106.64 166.407 105.597 166.428 105.576C165.332 103.964 164.058 102.473 162.91 100.897C161.768 99.328 160.621 97.763 159.513 96.17C157.263 92.934 155.197 89.572 152.964 86.322C152.935 86.281 153.001 86.239 153.031 86.28Z" fill="#263238"/>
<path d="M137.779 97.557C138.129 98.239 138.506 98.914 138.816 99.615C138.944 99.905 139.07 100.195 139.198 100.485C138.673 97.989 138.158 95.491 137.647 92.991C137.641 92.962 137.685 92.947 137.693 92.977C138.749 97.024 139.816 101.067 140.796 105.133C141.731 109.009 142.86 112.933 143.395 116.888C143.714 116.783 145.507 116.041 145.559 116.157C145.611 116.274 143.215 117.402 143.183 117.308C141.879 113.443 141.071 109.053 140.184 105.075C139.934 103.955 139.701 102.832 139.462 101.709C139.202 101.033 138.887 100.382 138.58 99.725C138.255 99.03 137.993 98.302 137.708 97.59C137.691 97.549 137.758 97.517 137.779 97.557Z" fill="#263238"/>
<path d="M143.884 113.155C147.085 111.35 160.459 104.427 163.451 103.122C163.658 103.031 163.767 103.138 163.563 103.259C154.104 108.895 147.192 111.661 143.96 113.276C143.88 113.316 143.803 113.201 143.884 113.155Z" fill="#263238"/>
<path d="M510.318 376.05H205.639L249.695 126.199H554.373L510.318 376.05Z" fill="#EBEBEB"/>
<path d="M353.971 100.324H254.257L249.695 126.199H356.406L353.971 100.324Z" fill="#EBEBEB"/>
<g opacity="0.1">
<path d="M510.318 376.05H205.639L249.695 126.199H554.373L510.318 376.05Z" fill="black"/>
<path d="M353.971 100.324H254.257L249.695 126.199H356.406L353.971 100.324Z" fill="black"/>
</g>
<path d="M243.498 110.88C243.104 109.43 243.015 107.979 242.998 106.529C243.012 105.078 243.101 103.628 243.498 102.178C243.894 103.628 243.983 105.079 243.998 106.529C243.981 107.98 243.892 109.43 243.498 110.88Z" fill="#263238"/>
<path d="M234.636 113.442C233.569 112.383 232.767 111.171 232.028 109.924C231.315 108.661 230.667 107.36 230.285 105.906C231.354 106.964 232.156 108.176 232.893 109.424C233.604 110.688 234.253 111.989 234.636 113.442Z" fill="#263238"/>
<path d="M228.245 120.091C226.792 119.707 225.491 119.059 224.227 118.348C222.978 117.61 221.766 116.808 220.709 115.74C222.163 116.122 223.464 116.77 224.727 117.483C225.974 118.223 227.186 119.024 228.245 120.091Z" fill="#263238"/>
<path d="M226.034 129.047C224.584 129.441 223.133 129.53 221.683 129.547C220.233 129.532 218.782 129.444 217.332 129.047C218.782 128.651 220.233 128.562 221.683 128.547C223.133 128.564 224.583 128.653 226.034 129.047Z" fill="#263238"/>
<path d="M228.597 137.908C227.538 138.975 226.326 139.777 225.079 140.516C223.816 141.229 222.515 141.877 221.061 142.259C222.119 141.191 223.331 140.389 224.579 139.651C225.843 138.94 227.144 138.291 228.597 137.908Z" fill="#263238"/>
<path d="M235.246 144.299C234.862 145.752 234.214 147.053 233.503 148.317C232.765 149.566 231.963 150.778 230.895 151.835C231.277 150.381 231.925 149.08 232.638 147.817C233.377 146.57 234.179 145.358 235.246 144.299Z" fill="#263238"/>
<path d="M244.199 146.512C244.593 147.963 244.682 149.413 244.699 150.863C244.684 152.313 244.596 153.764 244.199 155.214C243.802 153.764 243.714 152.313 243.699 150.863C243.716 149.413 243.805 147.963 244.199 146.512Z" fill="#263238"/>
<path d="M253.061 143.949C254.128 145.008 254.929 146.22 255.669 147.467C256.382 148.73 257.03 150.031 257.412 151.485C256.343 150.427 255.542 149.215 254.804 147.967C254.093 146.702 253.445 145.402 253.061 143.949Z" fill="#263238"/>
<path d="M259.453 137.299C260.906 137.683 262.207 138.331 263.471 139.042C264.72 139.78 265.932 140.582 266.989 141.65C265.535 141.268 264.234 140.62 262.971 139.907C261.724 139.168 260.512 138.366 259.453 137.299Z" fill="#263238"/>
<path d="M261.664 128.344C263.114 127.95 264.565 127.861 266.015 127.844C267.465 127.859 268.916 127.947 270.366 128.344C268.915 128.74 267.465 128.829 266.015 128.844C264.564 128.827 263.114 128.739 261.664 128.344Z" fill="#263238"/>
<path d="M259.102 119.484C260.161 118.417 261.373 117.615 262.62 116.876C263.883 116.164 265.184 115.515 266.638 115.133C265.58 116.201 264.368 117.003 263.12 117.741C261.856 118.452 260.555 119.1 259.102 119.484Z" fill="#263238"/>
<path d="M252.453 113.093C252.837 111.64 253.485 110.339 254.196 109.075C254.934 107.826 255.736 106.614 256.804 105.557C256.422 107.011 255.774 108.312 255.061 109.575C254.321 110.822 253.519 112.034 252.453 113.093Z" fill="#263238"/>
<path d="M510.145 376.051H204.81L161.459 135.27H466.794L510.145 376.051Z" fill="white"/>
<path d="M266.99 282.462C273.999 282.462 279.681 276.78 279.681 269.771C279.681 262.762 273.999 257.08 266.99 257.08C259.981 257.08 254.299 262.762 254.299 269.771C254.299 276.78 259.981 282.462 266.99 282.462Z" fill="#263238"/>
<path d="M367.314 282.462C374.323 282.462 380.005 276.78 380.005 269.771C380.005 262.762 374.323 257.08 367.314 257.08C360.305 257.08 354.623 262.762 354.623 269.771C354.623 276.78 360.305 282.462 367.314 282.462Z" fill="#263238"/>
<path d="M335.381 284.489L334.685 283.16C334.621 283.04 328.066 270.922 314.874 270.922C302.843 270.922 299.91 282.332 299.791 282.817L299.435 284.271L296.525 283.568L296.875 282.113C296.909 281.971 300.45 267.922 314.874 267.922C329.911 267.922 337.046 281.202 337.342 281.768L338.039 283.096L335.381 284.489Z" fill="#263238"/>
<path d="M489.607 268.315C490.258 268.175 490.908 268.022 491.554 267.857" stroke="#263238" stroke-miterlimit="10"/>
<path d="M495.394 266.72C510.69 261.555 523.499 249.522 524.704 235.464C527.361 204.464 489.608 187.34 493.508 151.518C497.228 117.347 533.07 114.909 547.438 119.632C563.307 124.849 557.869 140.102 543.501 138.134C518.591 134.722 502.933 107.641 514.764 76.921C523.603 53.97 545.638 45.314 554.589 42.6738" stroke="#263238" stroke-miterlimit="10" stroke-dasharray="4 4"/>
<path d="M556.516 42.1395C557.755 41.8205 558.46 41.6875 558.46 41.6875" stroke="#263238" stroke-miterlimit="10"/>
<path d="M574.321 36.1635C571.769 28.2595 554.689 31.0995 558.024 41.4255C561.358 51.752 576.873 44.067 574.321 36.1635Z" fill="#263238"/>
<path d="M548.733 32.9772C548.86 29.5112 553.683 26.8442 560.499 28.0742C567.315 29.3052 573.735 33.8962 573.735 33.8962C573.735 33.8962 566.995 38.0192 560.107 38.7462C553.218 39.4742 548.605 36.4602 548.733 32.9772Z" fill="#884EA7"/>
<path d="M573.735 33.8959C570.196 33.9199 566.662 33.8019 563.127 33.6939C559.594 33.5429 556.061 33.4029 552.533 33.1169C556.072 33.0909 559.606 33.2109 563.141 33.3189C566.674 33.4709 570.207 33.6119 573.735 33.8959Z" fill="#263238"/>
<path d="M555.584 29.9082C556.608 30.3662 557.555 30.9472 558.508 31.5172C559.438 32.1252 560.375 32.7232 561.234 33.4442C560.21 32.9872 559.263 32.4062 558.31 31.8342C557.379 31.2272 556.444 30.6292 555.584 29.9082Z" fill="#263238"/>
<path d="M564.85 33.5703C563.954 34.3313 562.98 34.9703 562.012 35.6193C561.02 36.2313 560.035 36.8543 558.971 37.3533C559.867 36.5923 560.841 35.9523 561.809 35.3043C562.8 34.6923 563.786 34.0713 564.85 33.5703Z" fill="#263238"/>
<path d="M565.879 31.6191C566.407 31.8461 566.845 32.1851 567.289 32.5161C567.706 32.8801 568.131 33.2351 568.464 33.7041C567.935 33.4781 567.498 33.1381 567.054 32.8071C566.637 32.4421 566.213 32.0861 565.879 31.6191Z" fill="#263238"/>
<path d="M555.228 53.551C557.359 56.288 562.83 55.631 567.64 50.647C572.449 45.662 574.972 38.1836 574.972 38.1836C574.972 38.1836 567.093 38.7806 561.081 42.2196C555.067 45.658 553.087 50.801 555.228 53.551Z" fill="#884EA7"/>
<path d="M574.97 38.1816C572.085 40.2316 569.288 42.3946 566.484 44.55C563.707 46.739 560.923 48.919 558.229 51.213C561.115 49.164 563.911 47 566.714 44.845C569.491 42.6556 572.275 40.4756 574.97 38.1816Z" fill="#263238"/>
<path d="M562.58 52.032C563.142 51.061 563.571 50.037 564.011 49.016C564.41 47.979 564.82 46.946 565.095 45.859C564.532 46.829 564.103 47.854 563.664 48.875C563.265 49.912 562.856 50.945 562.58 52.032Z" fill="#263238"/>
<path d="M567.955 43.6443C566.783 43.5513 565.619 43.6023 564.454 43.6413C563.292 43.7243 562.128 43.7963 560.973 44.013C562.145 44.107 563.309 44.056 564.474 44.016C565.636 43.9323 566.799 43.8593 567.955 43.6443Z" fill="#263238"/>
<path d="M569.93 44.625C570.225 44.132 570.382 43.6009 570.55 43.0729C570.675 42.5329 570.812 41.9969 570.808 41.4219C570.511 41.9149 570.355 42.4459 570.188 42.9739C570.063 43.5139 569.927 44.051 569.93 44.625Z" fill="#263238"/>
<path d="M574.32 36.1634C572.745 36.6714 571.056 35.8074 570.548 34.2324C570.04 32.6574 570.904 30.9694 572.478 30.4604C574.052 29.9514 575.742 30.8164 576.25 32.3914C576.759 33.9664 575.895 35.6554 574.32 36.1634Z" fill="#455A64"/>
<path d="M576.16 41.8681C574.585 42.3761 572.897 41.5121 572.388 39.9371C571.879 38.3621 572.744 36.6741 574.319 36.1651C575.894 35.6571 577.582 36.5211 578.091 38.0961C578.599 39.6701 577.735 41.3591 576.16 41.8681Z" fill="#455A64"/>
<path d="M248.314 39.321C246.882 53.01 234.618 62.951 220.93 61.519C215.398 60.94 210.48 58.592 206.672 55.085L194.203 56.915L200.442 46.135C198.928 42.452 198.291 38.353 198.732 34.134C200.164 20.445 212.428 10.504 226.116 11.936C239.804 13.368 249.745 25.632 248.314 39.321Z" fill="white"/>
<path d="M248.313 39.3216C247.792 43.8716 246.129 48.332 243.283 51.956C242.629 52.905 241.787 53.698 241.024 54.557C240.158 55.311 239.35 56.139 238.394 56.784C236.571 58.188 234.522 59.289 232.382 60.132C230.251 61.029 227.958 61.457 225.672 61.732C224.519 61.794 223.364 61.899 222.209 61.798C221.052 61.772 219.899 61.648 218.76 61.439C214.199 60.613 209.879 58.478 206.429 55.351L206.724 55.442L194.267 57.354L193.363 57.493L193.821 56.696L200.023 45.895L199.994 46.321C196.973 39.2066 197.654 30.7346 201.529 24.1056C203.461 20.7866 206.155 17.9266 209.335 15.7936C212.513 13.6546 216.199 12.3136 219.972 11.8026C223.749 11.3016 227.636 11.6456 231.243 12.8436C234.845 14.0566 238.148 16.0966 240.855 18.7376C246.356 23.9686 249.122 31.8166 248.313 39.3216ZM248.313 39.3216C249.071 31.8106 246.25 24.0106 240.745 18.8496C238.012 16.2686 234.703 14.3136 231.133 13.1786C227.557 12.0596 223.732 11.7926 220.048 12.3476C216.367 12.9126 212.802 14.2836 209.754 16.4136C206.714 18.5486 204.149 21.3406 202.297 24.5476C200.408 27.7476 199.43 31.4136 199.134 35.0936C198.901 38.7856 199.503 42.5226 200.888 45.952L200.978 46.175L200.859 46.379L194.584 57.137L194.138 56.479L206.619 54.731L206.791 54.707L206.914 54.822C210.213 57.919 214.388 60.081 218.849 60.97C219.963 61.195 221.093 61.336 222.23 61.381C223.365 61.501 224.502 61.417 225.641 61.376C227.898 61.144 230.173 60.762 232.298 59.91C234.431 59.111 236.493 58.064 238.31 56.67C239.266 56.035 240.074 55.218 240.942 54.473C241.707 53.624 242.552 52.84 243.209 51.899C246.068 48.307 247.761 43.8686 248.313 39.3216Z" fill="#263238"/>
<path d="M211.338 48.35C211.338 46.862 212.371 45.787 213.776 45.787C215.264 45.787 216.215 46.862 216.215 48.35C216.215 49.797 215.264 50.912 213.776 50.912C212.33 50.912 211.338 49.796 211.338 48.35ZM212.371 42.4386L211.792 22.5996H215.76L215.181 42.4386H212.371Z" fill="#FFC727"/>
<path d="M220.846 48.35C220.846 46.862 221.879 45.787 223.285 45.787C224.773 45.787 225.724 46.862 225.724 48.35C225.724 49.797 224.773 50.912 223.285 50.912C221.838 50.912 220.846 49.796 220.846 48.35ZM221.879 42.4386L221.301 22.5996H225.269L224.691 42.4386H221.879Z" fill="#FFC727"/>
<path d="M230.352 48.35C230.352 46.862 231.385 45.787 232.791 45.787C234.279 45.787 235.229 46.862 235.229 48.35C235.229 49.797 234.278 50.912 232.791 50.912C231.344 50.912 230.352 49.796 230.352 48.35ZM231.386 42.4386L230.807 22.5996H234.775L234.197 42.4386H231.386Z" fill="#FFC727"/>
</g>
<defs>
<clipPath id="clip0_1_2">
<rect width="612" height="401" fill="white"/>
</clipPath>
</defs>
</svg>
